<svg xmlns="http://www.w3.org/2000/svg" xmlns:xlink="http://www.w3.org/1999/xlink" contentStyleType="text/css" data-diagram-type="CLASS" height="936px" preserveAspectRatio="none" style="width:1184px;height:936px;background:#FFFFFF;" version="1.1" viewBox="0 0 1184 936" width="1184px" zoomAndPan="magnify"><defs/><g><!--class Usuario--><g id="elem_Usuario"><rect codeLine="2" fill="#F1F1F1" height="162.0781" id="Usuario" rx="2.5" ry="2.5" style="stroke:#181818;stroke-width:0.5;" width="176.3838" x="525.5" y="7"/><ellipse cx="582.8398" cy="23" fill="#ADD1B2" rx="11" ry="11" style="stroke:#181818;stroke-width:1;"/><path d="M585.8086,28.6406 Q585.2305,28.9375 584.5898,29.0781 Q583.9492,29.2344 583.2461,29.2344 Q580.7461,29.2344 579.418,27.5938 Q578.1055,25.9375 578.1055,22.8125 Q578.1055,19.6875 579.418,18.0313 Q580.7461,16.375 583.2461,16.375 Q583.9492,16.375 584.5898,16.5313 Q585.2461,16.6875 585.8086,16.9844 L585.8086,19.7031 Q585.1836,19.125 584.5898,18.8594 Q583.9961,18.5781 583.3711,18.5781 Q582.0273,18.5781 581.3398,19.6563 Q580.6523,20.7188 580.6523,22.8125 Q580.6523,24.9063 581.3398,25.9844 Q582.0273,27.0469 583.3711,27.0469 Q583.9961,27.0469 584.5898,26.7813 Q585.1836,26.5 585.8086,25.9219 L585.8086,28.6406 Z " fill="#000000"/><text fill="#000000" font-family="sans-serif" font-size="14" lengthAdjust="spacing" textLength="53.2041" x="603.3398" y="27.8467">Usuario</text><line style="stroke:#181818;stroke-width:0.5;" x1="526.5" x2="700.8838" y1="39" y2="39"/><rect fill="transparent" height="6" style="stroke:#C82930;stroke-width:1;" width="6" x="533.5" y="49.6484"/><text fill="#000000" font-family="sans-serif" font-size="14" lengthAdjust="spacing" textLength="40.1953" x="545.5" y="55.9951">id: int</text><rect fill="transparent" height="6" style="stroke:#C82930;stroke-width:1;" width="6" x="533.5" y="65.9453"/><text fill="#000000" font-family="sans-serif" font-size="14" lengthAdjust="spacing" textLength="90.6377" x="545.5" y="72.292">nome: String</text><rect fill="transparent" height="6" style="stroke:#C82930;stroke-width:1;" width="6" x="533.5" y="82.2422"/><text fill="#000000" font-family="sans-serif" font-size="14" lengthAdjust="spacing" textLength="89.5576" x="545.5" y="88.5889">email: String</text><rect fill="transparent" height="6" style="stroke:#C82930;stroke-width:1;" width="6" x="533.5" y="98.5391"/><text fill="#000000" font-family="sans-serif" font-size="14" lengthAdjust="spacing" textLength="93.1807" x="545.5" y="104.8857">senha: String</text><rect fill="transparent" height="6" style="stroke:#C82930;stroke-width:1;" width="6" x="533.5" y="114.8359"/><text fill="#000000" font-family="sans-serif" font-size="14" lengthAdjust="spacing" textLength="123.4639" x="545.5" y="121.1826">permissao: String</text><line style="stroke:#181818;stroke-width:0.5;" x1="526.5" x2="700.8838" y1="128.4844" y2="128.4844"/><ellipse cx="536.5" cy="142.1328" fill="#84BE84" rx="3" ry="3" style="stroke:#038048;stroke-width:1;"/><text fill="#000000" font-family="sans-serif" font-size="14" lengthAdjust="spacing" textLength="147.9023" x="545.5" y="145.4795">autenticar(): boolean</text><ellipse cx="536.5" cy="158.4297" fill="#84BE84" rx="3" ry="3" style="stroke:#038048;stroke-width:1;"/><text fill="#000000" font-family="sans-serif" font-size="14" lengthAdjust="spacing" textLength="150.3838" x="545.5" y="161.7764">gerarRelatorio(): void</text></g><!--class Garcom--><g id="elem_Garcom"><rect codeLine="13" fill="#F1F1F1" height="96.8906" id="Garcom" rx="2.5" ry="2.5" style="stroke:#181818;stroke-width:0.5;" width="183.0215" x="994" y="254"/><ellipse cx="1053.7188" cy="270" fill="#ADD1B2" rx="11" ry="11" style="stroke:#181818;stroke-width:1;"/><path d="M1056.6875,275.6406 Q1056.1094,275.9375 1055.4688,276.0781 Q1054.8281,276.2344 1054.125,276.2344 Q1051.625,276.2344 1050.2969,274.5938 Q1048.9844,272.9375 1048.9844,269.8125 Q1048.9844,266.6875 1050.2969,265.0313 Q1051.625,263.375 1054.125,263.375 Q1054.8281,263.375 1055.4688,263.5313 Q1056.125,263.6875 1056.6875,263.9844 L1056.6875,266.7031 Q1056.0625,266.125 1055.4688,265.8594 Q1054.875,265.5781 1054.25,265.5781 Q1052.9063,265.5781 1052.2188,266.6563 Q1051.5313,267.7188 1051.5313,269.8125 Q1051.5313,271.9063 1052.2188,272.9844 Q1052.9063,274.0469 1054.25,274.0469 Q1054.875,274.0469 1055.4688,273.7813 Q1056.0625,273.5 1056.6875,272.9219 L1056.6875,275.6406 Z " fill="#000000"/><text fill="#000000" font-family="sans-serif" font-size="14" lengthAdjust="spacing" textLength="55.084" x="1074.2188" y="274.8467">Garcom</text><line style="stroke:#181818;stroke-width:0.5;" x1="995" x2="1176.0215" y1="286" y2="286"/><rect fill="transparent" height="6" style="stroke:#C82930;stroke-width:1;" width="6" x="1002" y="296.6484"/><text fill="#000000" font-family="sans-serif" font-size="14" lengthAdjust="spacing" textLength="65.543" x="1014" y="302.9951">mesa: int</text><line style="stroke:#181818;stroke-width:0.5;" x1="995" x2="1176.0215" y1="310.2969" y2="310.2969"/><ellipse cx="1005" cy="323.9453" fill="#84BE84" rx="3" ry="3" style="stroke:#038048;stroke-width:1;"/><text fill="#000000" font-family="sans-serif" font-size="14" lengthAdjust="spacing" textLength="157.0215" x="1014" y="327.292">registrarPedido(): void</text><ellipse cx="1005" cy="340.2422" fill="#84BE84" rx="3" ry="3" style="stroke:#038048;stroke-width:1;"/><text fill="#000000" font-family="sans-serif" font-size="14" lengthAdjust="spacing" textLength="138.2158" x="1014" y="343.5889">editarPedido(): void</text></g><!--class Gerente--><g id="elem_Gerente"><rect codeLine="20" fill="#F1F1F1" height="96.8906" id="Gerente" rx="2.5" ry="2.5" style="stroke:#181818;stroke-width:0.5;" width="243.1436" x="223" y="254"/><ellipse cx="311.9185" cy="270" fill="#ADD1B2" rx="11" ry="11" style="stroke:#181818;stroke-width:1;"/><path d="M314.8872,275.6406 Q314.3091,275.9375 313.6685,276.0781 Q313.0278,276.2344 312.3247,276.2344 Q309.8247,276.2344 308.4966,274.5938 Q307.1841,272.9375 307.1841,269.8125 Q307.1841,266.6875 308.4966,265.0313 Q309.8247,263.375 312.3247,263.375 Q313.0278,263.375 313.6685,263.5313 Q314.3247,263.6875 314.8872,263.9844 L314.8872,266.7031 Q314.2622,266.125 313.6685,265.8594 Q313.0747,265.5781 312.4497,265.5781 Q311.106,265.5781 310.4185,266.6563 Q309.731,267.7188 309.731,269.8125 Q309.731,271.9063 310.4185,272.9844 Q311.106,274.0469 312.4497,274.0469 Q313.0747,274.0469 313.6685,273.7813 Q314.2622,273.5 314.8872,272.9219 L314.8872,275.6406 Z " fill="#000000"/><text fill="#000000" font-family="sans-serif" font-size="14" lengthAdjust="spacing" textLength="56.8066" x="332.4185" y="274.8467">Gerente</text><line style="stroke:#181818;stroke-width:0.5;" x1="224" x2="465.1436" y1="286" y2="286"/><rect fill="transparent" height="6" style="stroke:#C82930;stroke-width:1;" width="6" x="231" y="296.6484"/><text fill="#000000" font-family="sans-serif" font-size="14" lengthAdjust="spacing" textLength="142.0576" x="243" y="302.9951">idDepartamento: int</text><line style="stroke:#181818;stroke-width:0.5;" x1="224" x2="465.1436" y1="310.2969" y2="310.2969"/><ellipse cx="234" cy="323.9453" fill="#84BE84" rx="3" ry="3" style="stroke:#038048;stroke-width:1;"/><text fill="#000000" font-family="sans-serif" font-size="14" lengthAdjust="spacing" textLength="206.3018" x="243" y="327.292">autorizarEdicaoPedido(): void</text><ellipse cx="234" cy="340.2422" fill="#84BE84" rx="3" ry="3" style="stroke:#038048;stroke-width:1;"/><text fill="#000000" font-family="sans-serif" font-size="14" lengthAdjust="spacing" textLength="217.1436" x="243" y="343.5889">gerarRelatorioGerencial(): void</text></g><!--class Caixa--><g id="elem_Caixa"><rect codeLine="27" fill="#F1F1F1" height="96.8906" id="Caixa" rx="2.5" ry="2.5" style="stroke:#181818;stroke-width:0.5;" width="223.8252" x="501.5" y="254"/><ellipse cx="589.6084" cy="270" fill="#ADD1B2" rx="11" ry="11" style="stroke:#181818;stroke-width:1;"/><path d="M592.5771,275.6406 Q591.999,275.9375 591.3584,276.0781 Q590.7178,276.2344 590.0146,276.2344 Q587.5146,276.2344 586.1865,274.5938 Q584.874,272.9375 584.874,269.8125 Q584.874,266.6875 586.1865,265.0313 Q587.5146,263.375 590.0146,263.375 Q590.7178,263.375 591.3584,263.5313 Q592.0146,263.6875 592.5771,263.9844 L592.5771,266.7031 Q591.9521,266.125 591.3584,265.8594 Q590.7646,265.5781 590.1396,265.5781 Q588.7959,265.5781 588.1084,266.6563 Q587.4209,267.7188 587.4209,269.8125 Q587.4209,271.9063 588.1084,272.9844 Q588.7959,274.0469 590.1396,274.0469 Q590.7646,274.0469 591.3584,273.7813 Q591.9521,273.5 592.5771,272.9219 L592.5771,275.6406 Z " fill="#000000"/><text fill="#000000" font-family="sans-serif" font-size="14" lengthAdjust="spacing" textLength="39.1084" x="610.1084" y="274.8467">Caixa</text><line style="stroke:#181818;stroke-width:0.5;" x1="502.5" x2="724.3252" y1="286" y2="286"/><rect fill="transparent" height="6" style="stroke:#C82930;stroke-width:1;" width="6" x="509.5" y="296.6484"/><text fill="#000000" font-family="sans-serif" font-size="14" lengthAdjust="spacing" textLength="184.3721" x="521.5" y="302.9951">metodoPagamento: String</text><line style="stroke:#181818;stroke-width:0.5;" x1="502.5" x2="724.3252" y1="310.2969" y2="310.2969"/><ellipse cx="512.5" cy="323.9453" fill="#84BE84" rx="3" ry="3" style="stroke:#038048;stroke-width:1;"/><text fill="#000000" font-family="sans-serif" font-size="14" lengthAdjust="spacing" textLength="135.4473" x="521.5" y="327.292">fecharConta(): void</text><ellipse cx="512.5" cy="340.2422" fill="#84BE84" rx="3" ry="3" style="stroke:#038048;stroke-width:1;"/><text fill="#000000" font-family="sans-serif" font-size="14" lengthAdjust="spacing" textLength="197.8252" x="521.5" y="343.5889">processarPagamento(): void</text></g><!--class Pedido--><g id="elem_Pedido"><rect codeLine="34" fill="#F1F1F1" height="145.7813" id="Pedido" rx="2.5" ry="2.5" style="stroke:#181818;stroke-width:0.5;" width="255.5098" x="437.5" y="436"/><ellipse cx="537.3628" cy="452" fill="#ADD1B2" rx="11" ry="11" style="stroke:#181818;stroke-width:1;"/><path d="M540.3315,457.6406 Q539.7534,457.9375 539.1128,458.0781 Q538.4722,458.2344 537.769,458.2344 Q535.269,458.2344 533.9409,456.5938 Q532.6284,454.9375 532.6284,451.8125 Q532.6284,448.6875 533.9409,447.0313 Q535.269,445.375 537.769,445.375 Q538.4722,445.375 539.1128,445.5313 Q539.769,445.6875 540.3315,445.9844 L540.3315,448.7031 Q539.7065,448.125 539.1128,447.8594 Q538.519,447.5781 537.894,447.5781 Q536.5503,447.5781 535.8628,448.6563 Q535.1753,449.7188 535.1753,451.8125 Q535.1753,453.9063 535.8628,454.9844 Q536.5503,456.0469 537.894,456.0469 Q538.519,456.0469 539.1128,455.7813 Q539.7065,455.5 540.3315,454.9219 L540.3315,457.6406 Z " fill="#000000"/><text fill="#000000" font-family="sans-serif" font-size="14" lengthAdjust="spacing" textLength="47.2842" x="557.8628" y="456.8467">Pedido</text><line style="stroke:#181818;stroke-width:0.5;" x1="438.5" x2="692.0098" y1="468" y2="468"/><rect fill="transparent" height="6" style="stroke:#C82930;stroke-width:1;" width="6" x="445.5" y="478.6484"/><text fill="#000000" font-family="sans-serif" font-size="14" lengthAdjust="spacing" textLength="40.1953" x="457.5" y="484.9951">id: int</text><rect fill="transparent" height="6" style="stroke:#C82930;stroke-width:1;" width="6" x="445.5" y="494.9453"/><text fill="#000000" font-family="sans-serif" font-size="14" lengthAdjust="spacing" textLength="123.1289" x="457.5" y="501.292">itens: List&lt;Item&gt;</text><rect fill="transparent" height="6" style="stroke:#C82930;stroke-width:1;" width="6" x="445.5" y="511.2422"/><text fill="#000000" font-family="sans-serif" font-size="14" lengthAdjust="spacing" textLength="93.9668" x="457.5" y="517.5889">status: String</text><line style="stroke:#181818;stroke-width:0.5;" x1="438.5" x2="692.0098" y1="524.8906" y2="524.8906"/><ellipse cx="448.5" cy="538.5391" fill="#84BE84" rx="3" ry="3" style="stroke:#038048;stroke-width:1;"/><text fill="#000000" font-family="sans-serif" font-size="14" lengthAdjust="spacing" textLength="218.9688" x="457.5" y="541.8857">adicionarItem(item: Item): void</text><ellipse cx="448.5" cy="554.8359" fill="#84BE84" rx="3" ry="3" style="stroke:#038048;stroke-width:1;"/><text fill="#000000" font-family="sans-serif" font-size="14" lengthAdjust="spacing" textLength="213.4795" x="457.5" y="558.1826">removerItem(item: Item): void</text><ellipse cx="448.5" cy="571.1328" fill="#84BE84" rx="3" ry="3" style="stroke:#038048;stroke-width:1;"/><text fill="#000000" font-family="sans-serif" font-size="14" lengthAdjust="spacing" textLength="229.5098" x="457.5" y="574.4795">editarStatus(status: String): void</text></g><!--class Item--><g id="elem_Item"><rect codeLine="44" fill="#F1F1F1" height="80.5938" id="Item" rx="2.5" ry="2.5" style="stroke:#181818;stroke-width:0.5;" width="122.4004" x="775.5" y="667"/><ellipse cx="816.8391" cy="683" fill="#ADD1B2" rx="11" ry="11" style="stroke:#181818;stroke-width:1;"/><path d="M819.8078,688.6406 Q819.2297,688.9375 818.5891,689.0781 Q817.9484,689.2344 817.2453,689.2344 Q814.7453,689.2344 813.4172,687.5938 Q812.1047,685.9375 812.1047,682.8125 Q812.1047,679.6875 813.4172,678.0313 Q814.7453,676.375 817.2453,676.375 Q817.9484,676.375 818.5891,676.5313 Q819.2453,676.6875 819.8078,676.9844 L819.8078,679.7031 Q819.1828,679.125 818.5891,678.8594 Q817.9953,678.5781 817.3703,678.5781 Q816.0266,678.5781 815.3391,679.6563 Q814.6516,680.7188 814.6516,682.8125 Q814.6516,684.9063 815.3391,685.9844 Q816.0266,687.0469 817.3703,687.0469 Q817.9953,687.0469 818.5891,686.7813 Q819.1828,686.5 819.8078,685.9219 L819.8078,688.6406 Z " fill="#000000"/><text fill="#000000" font-family="sans-serif" font-size="14" lengthAdjust="spacing" textLength="31.8691" x="836.6922" y="687.8467">Item</text><line style="stroke:#181818;stroke-width:0.5;" x1="776.5" x2="896.9004" y1="699" y2="699"/><rect fill="transparent" height="6" style="stroke:#C82930;stroke-width:1;" width="6" x="783.5" y="709.6484"/><text fill="#000000" font-family="sans-serif" font-size="14" lengthAdjust="spacing" textLength="90.6377" x="795.5" y="715.9951">nome: String</text><rect fill="transparent" height="6" style="stroke:#C82930;stroke-width:1;" width="6" x="783.5" y="725.9453"/><text fill="#000000" font-family="sans-serif" font-size="14" lengthAdjust="spacing" textLength="96.4004" x="795.5" y="732.292">preco: double</text><line style="stroke:#181818;stroke-width:0.5;" x1="776.5" x2="896.9004" y1="739.5938" y2="739.5938"/></g><!--class Estoque--><g id="elem_Estoque"><rect codeLine="50" fill="#F1F1F1" height="96.8906" id="Estoque" rx="2.5" ry="2.5" style="stroke:#181818;stroke-width:0.5;" width="267.1582" x="72" y="659"/><ellipse cx="173.0454" cy="675" fill="#ADD1B2" rx="11" ry="11" style="stroke:#181818;stroke-width:1;"/><path d="M176.0142,680.6406 Q175.436,680.9375 174.7954,681.0781 Q174.1548,681.2344 173.4517,681.2344 Q170.9517,681.2344 169.6235,679.5938 Q168.311,677.9375 168.311,674.8125 Q168.311,671.6875 169.6235,670.0313 Q170.9517,668.375 173.4517,668.375 Q174.1548,668.375 174.7954,668.5313 Q175.4517,668.6875 176.0142,668.9844 L176.0142,671.7031 Q175.3892,671.125 174.7954,670.8594 Q174.2017,670.5781 173.5767,670.5781 Q172.2329,670.5781 171.5454,671.6563 Q170.8579,672.7188 170.8579,674.8125 Q170.8579,676.9063 171.5454,677.9844 Q172.2329,679.0469 173.5767,679.0469 Q174.2017,679.0469 174.7954,678.7813 Q175.3892,678.5 176.0142,677.9219 L176.0142,680.6406 Z " fill="#000000"/><text fill="#000000" font-family="sans-serif" font-size="14" lengthAdjust="spacing" textLength="56.5674" x="193.5454" y="679.8467">Estoque</text><line style="stroke:#181818;stroke-width:0.5;" x1="73" x2="338.1582" y1="691" y2="691"/><rect fill="transparent" height="6" style="stroke:#C82930;stroke-width:1;" width="6" x="80" y="701.6484"/><text fill="#000000" font-family="sans-serif" font-size="14" lengthAdjust="spacing" textLength="173.9951" x="92" y="707.9951">produtos: List&lt;Produto&gt;</text><line style="stroke:#181818;stroke-width:0.5;" x1="73" x2="338.1582" y1="715.2969" y2="715.2969"/><ellipse cx="83" cy="728.9453" fill="#84BE84" rx="3" ry="3" style="stroke:#038048;stroke-width:1;"/><text fill="#000000" font-family="sans-serif" font-size="14" lengthAdjust="spacing" textLength="241.1582" x="92" y="732.292">verificarDisponibilidade(): boolean</text><ellipse cx="83" cy="745.2422" fill="#84BE84" rx="3" ry="3" style="stroke:#038048;stroke-width:1;"/><text fill="#000000" font-family="sans-serif" font-size="14" lengthAdjust="spacing" textLength="167.2686" x="92" y="748.5889">atualizarEstoque(): void</text></g><!--class Produto--><g id="elem_Produto"><rect codeLine="57" fill="#F1F1F1" height="96.8906" id="Produto" rx="2.5" ry="2.5" style="stroke:#181818;stroke-width:0.5;" width="132.9756" x="139" y="833"/><ellipse cx="174.8789" cy="849" fill="#ADD1B2" rx="11" ry="11" style="stroke:#181818;stroke-width:1;"/><path d="M177.8476,854.6406 Q177.2695,854.9375 176.6289,855.0781 Q175.9882,855.2344 175.2851,855.2344 Q172.7851,855.2344 171.457,853.5938 Q170.1445,851.9375 170.1445,848.8125 Q170.1445,845.6875 171.457,844.0313 Q172.7851,842.375 175.2851,842.375 Q175.9882,842.375 176.6289,842.5313 Q177.2851,842.6875 177.8476,842.9844 L177.8476,845.7031 Q177.2226,845.125 176.6289,844.8594 Q176.0351,844.5781 175.4101,844.5781 Q174.0664,844.5781 173.3789,845.6563 Q172.6914,846.7188 172.6914,848.8125 Q172.6914,850.9063 173.3789,851.9844 Q174.0664,853.0469 175.4101,853.0469 Q176.0351,853.0469 176.6289,852.7813 Q177.2226,852.5 177.8476,851.9219 L177.8476,854.6406 Z " fill="#000000"/><text fill="#000000" font-family="sans-serif" font-size="14" lengthAdjust="spacing" textLength="54.5781" x="193.5186" y="853.8467">Produto</text><line style="stroke:#181818;stroke-width:0.5;" x1="140" x2="270.9756" y1="865" y2="865"/><rect fill="transparent" height="6" style="stroke:#C82930;stroke-width:1;" width="6" x="147" y="875.6484"/><text fill="#000000" font-family="sans-serif" font-size="14" lengthAdjust="spacing" textLength="90.6377" x="159" y="881.9951">nome: String</text><rect fill="transparent" height="6" style="stroke:#C82930;stroke-width:1;" width="6" x="147" y="891.9453"/><text fill="#000000" font-family="sans-serif" font-size="14" lengthAdjust="spacing" textLength="106.9756" x="159" y="898.292">quantidade: int</text><rect fill="transparent" height="6" style="stroke:#C82930;stroke-width:1;" width="6" x="147" y="908.2422"/><text fill="#000000" font-family="sans-serif" font-size="14" lengthAdjust="spacing" textLength="96.4004" x="159" y="914.5889">preco: double</text><line style="stroke:#181818;stroke-width:0.5;" x1="140" x2="270.9756" y1="921.8906" y2="921.8906"/></g><!--class Relatorio--><g id="elem_Relatorio"><rect codeLine="64" fill="#F1F1F1" height="113.1875" id="Relatorio" rx="2.5" ry="2.5" style="stroke:#181818;stroke-width:0.5;" width="181.3193" x="7" y="246"/><ellipse cx="61.8721" cy="262" fill="#ADD1B2" rx="11" ry="11" style="stroke:#181818;stroke-width:1;"/><path d="M64.8408,267.6406 Q64.2627,267.9375 63.6221,268.0781 Q62.9814,268.2344 62.2783,268.2344 Q59.7783,268.2344 58.4502,266.5938 Q57.1377,264.9375 57.1377,261.8125 Q57.1377,258.6875 58.4502,257.0313 Q59.7783,255.375 62.2783,255.375 Q62.9814,255.375 63.6221,255.5313 Q64.2783,255.6875 64.8408,255.9844 L64.8408,258.7031 Q64.2158,258.125 63.6221,257.8594 Q63.0283,257.5781 62.4033,257.5781 Q61.0596,257.5781 60.3721,258.6563 Q59.6846,259.7188 59.6846,261.8125 Q59.6846,263.9063 60.3721,264.9844 Q61.0596,266.0469 62.4033,266.0469 Q63.0283,266.0469 63.6221,265.7813 Q64.2158,265.5 64.8408,264.9219 L64.8408,267.6406 Z " fill="#000000"/><text fill="#000000" font-family="sans-serif" font-size="14" lengthAdjust="spacing" textLength="63.0752" x="82.3721" y="266.8467">Relatorio</text><line style="stroke:#181818;stroke-width:0.5;" x1="8" x2="187.3193" y1="278" y2="278"/><rect fill="transparent" height="6" style="stroke:#C82930;stroke-width:1;" width="6" x="15" y="288.6484"/><text fill="#000000" font-family="sans-serif" font-size="14" lengthAdjust="spacing" textLength="77.7793" x="27" y="294.9951">tipo: String</text><rect fill="transparent" height="6" style="stroke:#C82930;stroke-width:1;" width="6" x="15" y="304.9453"/><text fill="#000000" font-family="sans-serif" font-size="14" lengthAdjust="spacing" textLength="93.1602" x="27" y="311.292">dados: String</text><line style="stroke:#181818;stroke-width:0.5;" x1="8" x2="187.3193" y1="318.5938" y2="318.5938"/><ellipse cx="18" cy="332.2422" fill="#84BE84" rx="3" ry="3" style="stroke:#038048;stroke-width:1;"/><text fill="#000000" font-family="sans-serif" font-size="14" lengthAdjust="spacing" textLength="150.3838" x="27" y="335.5889">gerarRelatorio(): void</text><ellipse cx="18" cy="348.5391" fill="#84BE84" rx="3" ry="3" style="stroke:#038048;stroke-width:1;"/><text fill="#000000" font-family="sans-serif" font-size="14" lengthAdjust="spacing" textLength="155.3193" x="27" y="351.8857">enviarPorEmail(): void</text></g><!--class Notificacao--><g id="elem_Notificacao"><rect codeLine="72" fill="#F1F1F1" height="96.8906" id="Notificacao" rx="2.5" ry="2.5" style="stroke:#181818;stroke-width:0.5;" width="198.0674" x="760.5" y="254"/><ellipse cx="816.1069" cy="270" fill="#ADD1B2" rx="11" ry="11" style="stroke:#181818;stroke-width:1;"/><path d="M819.0757,275.6406 Q818.4976,275.9375 817.8569,276.0781 Q817.2163,276.2344 816.5132,276.2344 Q814.0132,276.2344 812.6851,274.5938 Q811.3726,272.9375 811.3726,269.8125 Q811.3726,266.6875 812.6851,265.0313 Q814.0132,263.375 816.5132,263.375 Q817.2163,263.375 817.8569,263.5313 Q818.5132,263.6875 819.0757,263.9844 L819.0757,266.7031 Q818.4507,266.125 817.8569,265.8594 Q817.2632,265.5781 816.6382,265.5781 Q815.2944,265.5781 814.6069,266.6563 Q813.9194,267.7188 813.9194,269.8125 Q813.9194,271.9063 814.6069,272.9844 Q815.2944,274.0469 816.6382,274.0469 Q817.2632,274.0469 817.8569,273.7813 Q818.4507,273.5 819.0757,272.9219 L819.0757,275.6406 Z " fill="#000000"/><text fill="#000000" font-family="sans-serif" font-size="14" lengthAdjust="spacing" textLength="78.3535" x="836.6069" y="274.8467">Notificacao</text><line style="stroke:#181818;stroke-width:0.5;" x1="761.5" x2="957.5674" y1="286" y2="286"/><rect fill="transparent" height="6" style="stroke:#C82930;stroke-width:1;" width="6" x="768.5" y="296.6484"/><text fill="#000000" font-family="sans-serif" font-size="14" lengthAdjust="spacing" textLength="77.7793" x="780.5" y="302.9951">tipo: String</text><rect fill="transparent" height="6" style="stroke:#C82930;stroke-width:1;" width="6" x="768.5" y="312.9453"/><text fill="#000000" font-family="sans-serif" font-size="14" lengthAdjust="spacing" textLength="129.083" x="780.5" y="319.292">mensagem: String</text><line style="stroke:#181818;stroke-width:0.5;" x1="761.5" x2="957.5674" y1="326.5938" y2="326.5938"/><ellipse cx="771.5" cy="340.2422" fill="#84BE84" rx="3" ry="3" style="stroke:#038048;stroke-width:1;"/><text fill="#000000" font-family="sans-serif" font-size="14" lengthAdjust="spacing" textLength="172.0674" x="780.5" y="343.5889">enviarNotificacao(): void</text></g><!--class Pagamento--><g id="elem_Pagamento"><rect codeLine="79" fill="#F1F1F1" height="96.8906" id="Pagamento" rx="2.5" ry="2.5" style="stroke:#181818;stroke-width:0.5;" width="223.8252" x="414.5" y="659"/><ellipse cx="482.3296" cy="675" fill="#ADD1B2" rx="11" ry="11" style="stroke:#181818;stroke-width:1;"/><path d="M485.2983,680.6406 Q484.7202,680.9375 484.0796,681.0781 Q483.439,681.2344 482.7358,681.2344 Q480.2358,681.2344 478.9077,679.5938 Q477.5952,677.9375 477.5952,674.8125 Q477.5952,671.6875 478.9077,670.0313 Q480.2358,668.375 482.7358,668.375 Q483.439,668.375 484.0796,668.5313 Q484.7358,668.6875 485.2983,668.9844 L485.2983,671.7031 Q484.6733,671.125 484.0796,670.8594 Q483.4858,670.5781 482.8608,670.5781 Q481.5171,670.5781 480.8296,671.6563 Q480.1421,672.7188 480.1421,674.8125 Q480.1421,676.9063 480.8296,677.9844 Q481.5171,679.0469 482.8608,679.0469 Q483.4858,679.0469 484.0796,678.7813 Q484.6733,678.5 485.2983,677.9219 L485.2983,680.6406 Z " fill="#000000"/><text fill="#000000" font-family="sans-serif" font-size="14" lengthAdjust="spacing" textLength="79.666" x="502.8296" y="679.8467">Pagamento</text><line style="stroke:#181818;stroke-width:0.5;" x1="415.5" x2="637.3252" y1="691" y2="691"/><rect fill="transparent" height="6" style="stroke:#C82930;stroke-width:1;" width="6" x="422.5" y="701.6484"/><text fill="#000000" font-family="sans-serif" font-size="14" lengthAdjust="spacing" textLength="104.7061" x="434.5" y="707.9951">metodo: String</text><rect fill="transparent" height="6" style="stroke:#C82930;stroke-width:1;" width="6" x="422.5" y="717.9453"/><text fill="#000000" font-family="sans-serif" font-size="14" lengthAdjust="spacing" textLength="91.957" x="434.5" y="724.292">valor: double</text><line style="stroke:#181818;stroke-width:0.5;" x1="415.5" x2="637.3252" y1="731.5938" y2="731.5938"/><ellipse cx="425.5" cy="745.2422" fill="#84BE84" rx="3" ry="3" style="stroke:#038048;stroke-width:1;"/><text fill="#000000" font-family="sans-serif" font-size="14" lengthAdjust="spacing" textLength="197.8252" x="434.5" y="748.5889">processarPagamento(): void</text></g><!--reverse link Usuario to Garcom--><g id="link_Usuario_Garcom"><path codeLine="87" d="M718.4497,132.3168 C792.3897,163.1968 883.76,202.39 976.5,246 C982.17,248.67 987.98,251.45 993.82,254.3 " fill="transparent" id="Usuario-backto-Garcom" style="stroke:#181818;stroke-width:1;"/><polygon fill="transparent" points="701.84,125.38,716.1374,137.8533,720.7619,126.7802,701.84,125.38" style="stroke:#181818;stroke-width:1;"/><text fill="#000000" font-family="sans-serif" font-size="13" lengthAdjust="spacing" textLength="54.4375" x="908.5" y="212.0669">Heran&#231;a</text></g><!--reverse link Usuario to Gerente--><g id="link_Usuario_Gerente"><path codeLine="88" d="M511.296,169.7385 C471.766,200.9685 440.26,225.86 404.71,253.93 " fill="transparent" id="Usuario-backto-Gerente" style="stroke:#181818;stroke-width:1;"/><polygon fill="transparent" points="525.42,158.58,507.5765,165.0304,515.0154,174.4465,525.42,158.58" style="stroke:#181818;stroke-width:1;"/><text fill="#000000" font-family="sans-serif" font-size="13" lengthAdjust="spacing" textLength="54.4375" x="472.5" y="212.0669">Heran&#231;a</text></g><!--reverse link Usuario to Caixa--><g id="link_Usuario_Caixa"><path codeLine="89" d="M613.5,187.03 C613.5,215.62 613.5,228.91 613.5,253.9 " fill="transparent" id="Usuario-backto-Caixa" style="stroke:#181818;stroke-width:1;"/><polygon fill="transparent" points="613.5,169.03,607.5,187.03,619.5,187.03,613.5,169.03" style="stroke:#181818;stroke-width:1;"/><text fill="#000000" font-family="sans-serif" font-size="13" lengthAdjust="spacing" textLength="54.4375" x="614.5" y="212.0669">Heran&#231;a</text></g><!--link Garcom to Pedido--><g id="link_Garcom_Pedido"><path codeLine="91" d="M994,351.1 C988.12,353.85 982.25,356.51 976.5,359 C883.55,399.33 781.4496,436.1856 699.5896,464.0656 " fill="transparent" id="Garcom-to-Pedido" style="stroke:#181818;stroke-width:1;"/><polygon fill="#181818" points="693.91,466,703.719,466.8849,698.643,464.388,701.1399,459.312,693.91,466" style="stroke:#181818;stroke-width:1;"/><text fill="#000000" font-family="sans-serif" font-size="13" lengthAdjust="spacing" textLength="72.1855" x="899.5" y="402.0669">Associa&#231;&#227;o</text></g><!--link Gerente to Pedido--><g id="link_Gerente_Pedido"><path codeLine="92" d="M396.04,351.19 C423.2,376.33 452.6964,403.6147 483.0164,431.6747 " fill="transparent" id="Gerente-to-Pedido" style="stroke:#181818;stroke-width:1;"/><polygon fill="#181818" points="487.42,435.75,483.5315,426.7013,483.7503,432.3539,478.0977,432.5727,487.42,435.75" style="stroke:#181818;stroke-width:1;"/><text fill="#000000" font-family="sans-serif" font-size="13" lengthAdjust="spacing" textLength="72.1855" x="456.5" y="402.0669">Associa&#231;&#227;o</text></g><!--link Caixa to Pedido--><g id="link_Caixa_Pedido"><path codeLine="93" d="M602.31,351.19 C596.41,376.33 590.4098,401.8485 583.8298,429.9085 " fill="transparent" id="Caixa-to-Pedido" style="stroke:#181818;stroke-width:1;"/><polygon fill="#181818" points="582.46,435.75,588.4091,427.9009,583.6015,430.8821,580.6204,426.0745,582.46,435.75" style="stroke:#181818;stroke-width:1;"/><text fill="#000000" font-family="sans-serif" font-size="13" lengthAdjust="spacing" textLength="72.1855" x="593.5" y="402.0669">Associa&#231;&#227;o</text></g><!--link Pedido to Item--><g id="link_Pedido_Item"><path codeLine="95" d="M664.87,582.05 C704.45,610.75 743.6021,639.1486 777.1521,663.4686 " fill="transparent" id="Pedido-to-Item" style="stroke:#181818;stroke-width:1;"/><polygon fill="#181818" points="782.01,666.99,777.0708,658.4692,777.9617,664.0555,772.3755,664.9464,782.01,666.99" style="stroke:#181818;stroke-width:1;"/><text fill="#000000" font-family="sans-serif" font-size="13" lengthAdjust="spacing" textLength="79.3521" x="725.5" y="625.0669">Composi&#231;&#227;o</text></g><!--link Pedido to Estoque--><g id="link_Pedido_Estoque"><path codeLine="96" d="M437.31,579.97 C389.33,606.16 341.257,632.4063 297.837,656.0963 " fill="transparent" id="Pedido-to-Estoque" style="stroke:#181818;stroke-width:1;"/><polygon fill="#181818" points="292.57,658.97,302.3864,658.1708,296.9592,656.5752,298.5548,651.1481,292.57,658.97" style="stroke:#181818;stroke-width:1;"/><text fill="#000000" font-family="sans-serif" font-size="13" lengthAdjust="spacing" textLength="72.1855" x="376.5" y="625.0669">Associa&#231;&#227;o</text></g><!--link Pedido to Pagamento--><g id="link_Pedido_Pagamento"><path codeLine="97" d="M551.2,582.05 C546.11,607.68 541.6888,629.995 537.1088,653.055 " fill="transparent" id="Pedido-to-Pagamento" style="stroke:#181818;stroke-width:1;"/><polygon fill="#181818" points="535.94,658.94,541.6166,650.8917,536.914,654.0358,533.7699,649.3332,535.94,658.94" style="stroke:#181818;stroke-width:1;"/><text fill="#000000" font-family="sans-serif" font-size="13" lengthAdjust="spacing" textLength="72.1855" x="546.5" y="625.0669">Associa&#231;&#227;o</text></g><!--link Estoque to Produto--><g id="link_Estoque_Produto"><path codeLine="99" d="M205.5,756.41 C205.5,780.27 205.5,803.02 205.5,826.85 " fill="transparent" id="Estoque-to-Produto" style="stroke:#181818;stroke-width:1;"/><polygon fill="#181818" points="205.5,832.85,209.5,823.85,205.5,827.85,201.5,823.85,205.5,832.85" style="stroke:#181818;stroke-width:1;"/><text fill="#000000" font-family="sans-serif" font-size="13" lengthAdjust="spacing" textLength="69.7734" x="206.5" y="799.0669">Agrega&#231;&#227;o</text></g><!--link Pagamento to Pagamento--><g id="link_Pagamento_Pagamento"><path codeLine="100" d="M638.66,692.26 C659.14,694.19 673.5,699.27 673.5,707.5 C673.5,715.73 665.1135,720.2471 644.6335,722.1771 " fill="transparent" id="Pagamento-to-Pagamento" style="stroke:#181818;stroke-width:1;"/><polygon fill="#181818" points="638.66,722.74,647.9956,725.878,643.6379,722.2709,647.245,717.9132,638.66,722.74" style="stroke:#181818;stroke-width:1;"/><text fill="#000000" font-family="sans-serif" font-size="13" lengthAdjust="spacing" textLength="72.1855" x="679.5" y="712.0669">Associa&#231;&#227;o</text></g><!--link Relatorio to Pedido--><g id="link_Relatorio_Pedido"><path codeLine="102" d="M188.27,350.82 C194.08,353.64 199.86,356.39 205.5,359 C281.46,394.17 362.5419,427.9147 431.7919,455.7147 " fill="transparent" id="Relatorio-to-Pedido" style="stroke:#181818;stroke-width:1;"/><polygon fill="#181818" points="437.36,457.95,430.4981,450.885,432.7199,456.0873,427.5177,458.3091,437.36,457.95" style="stroke:#181818;stroke-width:1;"/><text fill="#000000" font-family="sans-serif" font-size="13" lengthAdjust="spacing" textLength="72.1855" x="304.5" y="402.0669">Associa&#231;&#227;o</text></g><!--link Relatorio to Estoque--><g id="link_Relatorio_Estoque"><path codeLine="103" d="M112.4,359.11 C133.76,438.79 171.1369,578.2645 191.2169,653.1945 " fill="transparent" id="Relatorio-to-Estoque" style="stroke:#181818;stroke-width:1;"/><polygon fill="#181818" points="192.77,658.99,194.304,649.2613,191.4758,654.1604,186.5767,651.3321,192.77,658.99" style="stroke:#181818;stroke-width:1;"/><text fill="#000000" font-family="sans-serif" font-size="13" lengthAdjust="spacing" textLength="72.1855" x="172.5" y="513.5669">Associa&#231;&#227;o</text></g><!--link Notificacao to Pedido--><g id="link_Notificacao_Pedido"><path codeLine="105" d="M790.94,351.19 C754.72,376.39 714.4261,404.4145 674.0161,432.5145 " fill="transparent" id="Notificacao-to-Pedido" style="stroke:#181818;stroke-width:1;"/><polygon fill="#181818" points="669.09,435.94,678.7628,434.0859,673.1951,433.0855,674.1955,427.5178,669.09,435.94" style="stroke:#181818;stroke-width:1;"/><text fill="#000000" font-family="sans-serif" font-size="13" lengthAdjust="spacing" textLength="72.1855" x="730.5" y="402.0669">Associa&#231;&#227;o</text></g><!--SRC=[ZLHTYjim47xtAVIsAKikO9P0oOQsK4heqWDCx5clmD9u9JcK_Xocz247ySKwiYJ7zjgXUGYU6UdxlldJdTZNO2sA4_1VYUARRRi_Hb9MUBytWItnCnFysmfPva9g5orD2dFnv8pKLNIX0bdFV1Rr2yny3HebhGMQ-Ey5j0wramMOpRjSd8Xg11rZ5HemNx46Hwp9nyyao-ntbjsbD3w0wIwaedgs2bA3U8KMhlBlXS5AMiUOHonbUGKCKVQvDw495ngMYeahMADAFM83ne5YDurfEKNM_mFCeUGyQP5yccgFNKYe5tNiGNw7gAB_7YNigAGZL4d4fDJFMBo0sPDsC6Dl31N8pJ73rKNYe3mo1sDbK2GtrURYCvVxuPD3jKkJuS2rTZu2N1P96em_kU6hAXV-SwhHeA8ptZuJMlZKasocN4lvU82OZVySSbaOyyPWmVKigJtLE04vM4UlRPgAQ0rGNDcIsvzgSGpcBkhbVEIpd_r7QHlIyYHhMKA9RrU1Ku6wdw50iDoVW9uQ5AnRMRssmBld6SVDMyzr6D18CTW3YPCDpKWOdkOjNzdis4LzbZoAP0x-RLdCz0kvld2yJb7Ao7DB30-tXSfFpqHFe1nXBDStRKUgSB9d2pZZF4DDPgZd_ssShqs_57tCPbbwc1z-RRVfdSl5HwwZxYum2yUdQIqU7erHD8k0s-qkxNKktbjB_0Prb-ulPGbo_KG0NOzdqUrFzDkMYpsfXgmCyL4uBT4CONJYMlavIxhRdueRm6SgVliJp73tDj9rkDUJcfvPqPsDPtCLwny0]--></g></svg>