<svg xmlns="http://www.w3.org/2000/svg" xmlns:xlink="http://www.w3.org/1999/xlink" contentStyleType="text/css" data-diagram-type="SEQUENCE" height="823px" preserveAspectRatio="none" style="width:1540px;height:823px;background:#FFFFFF;" version="1.1" viewBox="0 0 1540 823" width="1540px" zoomAndPan="magnify"><defs/><g><g><title>Gar&#231;om</title><rect fill="transparent" height="660.9219" width="8" x="31.542" y="81.2969"/><line style="stroke:#181818;stroke-width:0.5;stroke-dasharray:5.0,5.0;" x1="35" x2="35" y1="81.2969" y2="742.2188"/></g><g><title>Aplicativo</title><rect fill="transparent" height="660.9219" width="8" x="264.6528" y="81.2969"/><line style="stroke:#181818;stroke-width:0.5;stroke-dasharray:5.0,5.0;" x1="268.2783" x2="268.2783" y1="81.2969" y2="742.2188"/></g><g><title>Sistema de Autoriza&#231;&#227;o</title><rect fill="transparent" height="660.9219" width="8" x="469.9863" y="81.2969"/><line style="stroke:#181818;stroke-width:0.5;stroke-dasharray:5.0,5.0;" x1="473.1313" x2="473.1313" y1="81.2969" y2="742.2188"/></g><g><title>Sistema de Pagamento</title><rect fill="transparent" height="660.9219" width="8" x="658.0693" y="81.2969"/><line style="stroke:#181818;stroke-width:0.5;stroke-dasharray:5.0,5.0;" x1="661.8413" x2="661.8413" y1="81.2969" y2="742.2188"/></g><g><title>Sistema de Controle de Estoque</title><rect fill="transparent" height="660.9219" width="8" x="875.9399" y="81.2969"/><line style="stroke:#181818;stroke-width:0.5;stroke-dasharray:5.0,5.0;" x1="879.2974" x2="879.2974" y1="81.2969" y2="742.2188"/></g><g><title>Sistema de Pedidos</title><rect fill="transparent" height="660.9219" width="8" x="1186.0288" y="81.2969"/><line style="stroke:#181818;stroke-width:0.5;stroke-dasharray:5.0,5.0;" x1="1189.3447" x2="1189.3447" y1="81.2969" y2="742.2188"/></g><g><title>Cozinha/Bar</title><rect fill="transparent" height="660.9219" width="8" x="1480.896" y="81.2969"/><line style="stroke:#181818;stroke-width:0.5;stroke-dasharray:5.0,5.0;" x1="1484.6157" x2="1484.6157" y1="81.2969" y2="742.2188"/></g><text fill="#000000" font-family="sans-serif" font-size="14" lengthAdjust="spacing" textLength="55.084" x="5" y="77.9951">Gar&#231;om</text><ellipse cx="35.542" cy="13.5" fill="#E2E2F0" rx="8" ry="8" style="stroke:#181818;stroke-width:0.5;"/><path d="M35.542,21.5 L35.542,48.5 M22.542,29.5 L48.542,29.5 M35.542,48.5 L22.542,63.5 M35.542,48.5 L48.542,63.5 " fill="transparent" style="stroke:#181818;stroke-width:0.5;"/><text fill="#000000" font-family="sans-serif" font-size="14" lengthAdjust="spacing" textLength="55.084" x="5" y="754.2139">Gar&#231;om</text><ellipse cx="35.542" cy="766.0156" fill="#E2E2F0" rx="8" ry="8" style="stroke:#181818;stroke-width:0.5;"/><path d="M35.542,774.0156 L35.542,801.0156 M22.542,782.0156 L48.542,782.0156 M35.542,801.0156 L22.542,816.0156 M35.542,801.0156 L48.542,816.0156 " fill="transparent" style="stroke:#181818;stroke-width:0.5;"/><rect fill="#E2E2F0" height="30.2969" rx="2.5" ry="2.5" style="stroke:#181818;stroke-width:0.5;" width="82.749" x="227.2783" y="50"/><text fill="#000000" font-family="sans-serif" font-size="14" lengthAdjust="spacing" textLength="68.749" x="234.2783" y="69.9951">Aplicativo</text><rect fill="#E2E2F0" height="30.2969" rx="2.5" ry="2.5" style="stroke:#181818;stroke-width:0.5;" width="82.749" x="227.2783" y="741.2188"/><text fill="#000000" font-family="sans-serif" font-size="14" lengthAdjust="spacing" textLength="68.749" x="234.2783" y="761.2139">Aplicativo</text><rect fill="#E2E2F0" height="30.2969" rx="2.5" ry="2.5" style="stroke:#181818;stroke-width:0.5;" width="179.71" x="384.1313" y="50"/><text fill="#000000" font-family="sans-serif" font-size="14" lengthAdjust="spacing" textLength="165.71" x="391.1313" y="69.9951">Sistema de Autoriza&#231;&#227;o</text><rect fill="#E2E2F0" height="30.2969" rx="2.5" ry="2.5" style="stroke:#181818;stroke-width:0.5;" width="179.71" x="384.1313" y="741.2188"/><text fill="#000000" font-family="sans-serif" font-size="14" lengthAdjust="spacing" textLength="165.71" x="391.1313" y="761.2139">Sistema de Autoriza&#231;&#227;o</text><rect fill="#E2E2F0" height="30.2969" rx="2.5" ry="2.5" style="stroke:#181818;stroke-width:0.5;" width="176.4561" x="573.8413" y="50"/><text fill="#000000" font-family="sans-serif" font-size="14" lengthAdjust="spacing" textLength="162.4561" x="580.8413" y="69.9951">Sistema de Pagamento</text><rect fill="#E2E2F0" height="30.2969" rx="2.5" ry="2.5" style="stroke:#181818;stroke-width:0.5;" width="176.4561" x="573.8413" y="741.2188"/><text fill="#000000" font-family="sans-serif" font-size="14" lengthAdjust="spacing" textLength="162.4561" x="580.8413" y="761.2139">Sistema de Pagamento</text><rect fill="#E2E2F0" height="30.2969" rx="2.5" ry="2.5" style="stroke:#181818;stroke-width:0.5;" width="239.2852" x="760.2974" y="50"/><text fill="#000000" font-family="sans-serif" font-size="14" lengthAdjust="spacing" textLength="225.2852" x="767.2974" y="69.9951">Sistema de Controle de Estoque</text><rect fill="#E2E2F0" height="30.2969" rx="2.5" ry="2.5" style="stroke:#181818;stroke-width:0.5;" width="239.2852" x="760.2974" y="741.2188"/><text fill="#000000" font-family="sans-serif" font-size="14" lengthAdjust="spacing" textLength="225.2852" x="767.2974" y="761.2139">Sistema de Controle de Estoque</text><rect fill="#E2E2F0" height="30.2969" rx="2.5" ry="2.5" style="stroke:#181818;stroke-width:0.5;" width="151.3682" x="1114.3447" y="50"/><text fill="#000000" font-family="sans-serif" font-size="14" lengthAdjust="spacing" textLength="137.3682" x="1121.3447" y="69.9951">Sistema de Pedidos</text><rect fill="#E2E2F0" height="30.2969" rx="2.5" ry="2.5" style="stroke:#181818;stroke-width:0.5;" width="151.3682" x="1114.3447" y="741.2188"/><text fill="#000000" font-family="sans-serif" font-size="14" lengthAdjust="spacing" textLength="137.3682" x="1121.3447" y="761.2139">Sistema de Pedidos</text><rect fill="#E2E2F0" height="30.2969" rx="2.5" ry="2.5" style="stroke:#181818;stroke-width:0.5;" width="98.5605" x="1435.6157" y="50"/><text fill="#000000" font-family="sans-serif" font-size="14" lengthAdjust="spacing" textLength="84.5605" x="1442.6157" y="69.9951">Cozinha/Bar</text><rect fill="#E2E2F0" height="30.2969" rx="2.5" ry="2.5" style="stroke:#181818;stroke-width:0.5;" width="98.5605" x="1435.6157" y="741.2188"/><text fill="#000000" font-family="sans-serif" font-size="14" lengthAdjust="spacing" textLength="84.5605" x="1442.6157" y="761.2139">Cozinha/Bar</text><polygon fill="#181818" points="256.6528,108.4297,266.6528,112.4297,256.6528,116.4297,260.6528,112.4297" style="stroke:#181818;stroke-width:1;"/><line style="stroke:#181818;stroke-width:1;" x1="35.542" x2="262.6528" y1="112.4297" y2="112.4297"/><text fill="#000000" font-family="sans-serif" font-size="13" lengthAdjust="spacing" textLength="101.4546" x="42.542" y="107.3638">Inicia aplicativo</text><polygon fill="#181818" points="461.9863,137.5625,471.9863,141.5625,461.9863,145.5625,465.9863,141.5625" style="stroke:#181818;stroke-width:1;"/><line style="stroke:#181818;stroke-width:1;" x1="268.6528" x2="467.9863" y1="141.5625" y2="141.5625"/><text fill="#000000" font-family="sans-serif" font-size="13" lengthAdjust="spacing" textLength="135.8145" x="275.6528" y="136.4966">Solicita autentica&#231;&#227;o</text><polygon fill="#181818" points="46.542,166.6953,36.542,170.6953,46.542,174.6953,42.542,170.6953" style="stroke:#181818;stroke-width:1;"/><line style="stroke:#181818;stroke-width:1;" x1="40.542" x2="472.9863" y1="170.6953" y2="170.6953"/><text fill="#000000" font-family="sans-serif" font-size="13" lengthAdjust="spacing" textLength="163.3506" x="52.542" y="165.6294">Exibe formul&#225;rio de login</text><polygon fill="#181818" points="461.9863,195.8281,471.9863,199.8281,461.9863,203.8281,465.9863,199.8281" style="stroke:#181818;stroke-width:1;"/><line style="stroke:#181818;stroke-width:1;" x1="35.542" x2="467.9863" y1="199.8281" y2="199.8281"/><text fill="#000000" font-family="sans-serif" font-size="13" lengthAdjust="spacing" textLength="130.3809" x="42.542" y="194.7622">Fornece credenciais</text><polygon fill="#181818" points="279.6528,224.9609,269.6528,228.9609,279.6528,232.9609,275.6528,228.9609" style="stroke:#181818;stroke-width:1;"/><line style="stroke:#181818;stroke-width:1;" x1="273.6528" x2="472.9863" y1="228.9609" y2="228.9609"/><text fill="#000000" font-family="sans-serif" font-size="13" lengthAdjust="spacing" textLength="181.3335" x="285.6528" y="223.895">Autentica&#231;&#227;o bem-sucedida</text><polygon fill="#181818" points="46.542,254.0938,36.542,258.0938,46.542,262.0938,42.542,258.0938" style="stroke:#181818;stroke-width:1;"/><line style="stroke:#181818;stroke-width:1;" x1="40.542" x2="267.6528" y1="258.0938" y2="258.0938"/><text fill="#000000" font-family="sans-serif" font-size="13" lengthAdjust="spacing" textLength="102.6606" x="52.542" y="253.0278">Acesso liberado</text><polygon fill="#181818" points="256.6528,283.2266,266.6528,287.2266,256.6528,291.2266,260.6528,287.2266" style="stroke:#181818;stroke-width:1;"/><line style="stroke:#181818;stroke-width:1;" x1="35.542" x2="262.6528" y1="287.2266" y2="287.2266"/><text fill="#000000" font-family="sans-serif" font-size="13" lengthAdjust="spacing" textLength="167.356" x="42.542" y="282.1606">Solicita cria&#231;&#227;o de pedido</text><polygon fill="#181818" points="1178.0288,312.3594,1188.0288,316.3594,1178.0288,320.3594,1182.0288,316.3594" style="stroke:#181818;stroke-width:1;"/><line style="stroke:#181818;stroke-width:1;" x1="268.6528" x2="1184.0288" y1="316.3594" y2="316.3594"/><text fill="#000000" font-family="sans-serif" font-size="13" lengthAdjust="spacing" textLength="110.4238" x="275.6528" y="311.2935">Cria novo pedido</text><polygon fill="#181818" points="890.9399,341.4922,880.9399,345.4922,890.9399,349.4922,886.9399,345.4922" style="stroke:#181818;stroke-width:1;"/><line style="stroke:#181818;stroke-width:1;" x1="884.9399" x2="1189.0288" y1="345.4922" y2="345.4922"/><text fill="#000000" font-family="sans-serif" font-size="13" lengthAdjust="spacing" textLength="207.7651" x="896.9399" y="340.4263">Verifica disponibilidade de itens</text><polygon fill="#181818" points="1178.0288,370.625,1188.0288,374.625,1178.0288,378.625,1182.0288,374.625" style="stroke:#181818;stroke-width:1;"/><line style="stroke:#181818;stroke-width:1;" x1="879.9399" x2="1184.0288" y1="374.625" y2="374.625"/><text fill="#000000" font-family="sans-serif" font-size="13" lengthAdjust="spacing" textLength="218.4736" x="886.9399" y="369.5591">Retorna status de disponibilidade</text><polygon fill="#181818" points="1472.896,399.7578,1482.896,403.7578,1472.896,407.7578,1476.896,403.7578" style="stroke:#181818;stroke-width:1;"/><line style="stroke:#181818;stroke-width:1;" x1="1190.0288" x2="1478.896" y1="403.7578" y2="403.7578"/><text fill="#000000" font-family="sans-serif" font-size="13" lengthAdjust="spacing" textLength="197.8945" x="1197.0288" y="398.6919">Envia pedido para cozinha/bar</text><polygon fill="#181818" points="1201.0288,428.8906,1191.0288,432.8906,1201.0288,436.8906,1197.0288,432.8906" style="stroke:#181818;stroke-width:1;"/><line style="stroke:#181818;stroke-width:1;" x1="1195.0288" x2="1483.896" y1="432.8906" y2="432.8906"/><text fill="#000000" font-family="sans-serif" font-size="13" lengthAdjust="spacing" textLength="270.8672" x="1207.0288" y="427.8247">Confirma recebimento e status do pedido</text><polygon fill="#181818" points="279.6528,458.0234,269.6528,462.0234,279.6528,466.0234,275.6528,462.0234" style="stroke:#181818;stroke-width:1;"/><line style="stroke:#181818;stroke-width:1;" x1="273.6528" x2="1189.0288" y1="462.0234" y2="462.0234"/><text fill="#000000" font-family="sans-serif" font-size="13" lengthAdjust="spacing" textLength="164.5439" x="285.6528" y="456.9575">Retorna status de pedido</text><polygon fill="#181818" points="46.542,487.1563,36.542,491.1563,46.542,495.1563,42.542,491.1563" style="stroke:#181818;stroke-width:1;"/><line style="stroke:#181818;stroke-width:1;" x1="40.542" x2="267.6528" y1="491.1563" y2="491.1563"/><text fill="#000000" font-family="sans-serif" font-size="13" lengthAdjust="spacing" textLength="162.5571" x="52.542" y="486.0903">Notifica status do pedido</text><polygon fill="#181818" points="890.9399,516.2891,880.9399,520.2891,890.9399,524.2891,886.9399,520.2891" style="stroke:#181818;stroke-width:1;"/><line style="stroke:#181818;stroke-width:1;" x1="884.9399" x2="1189.0288" y1="520.2891" y2="520.2891"/><text fill="#000000" font-family="sans-serif" font-size="13" lengthAdjust="spacing" textLength="286.0889" x="896.9399" y="515.2231">Solicita atualiza&#231;&#227;o de estoque ap&#243;s pedido</text><polygon fill="#181818" points="1178.0288,545.4219,1188.0288,549.4219,1178.0288,553.4219,1182.0288,549.4219" style="stroke:#181818;stroke-width:1;"/><line style="stroke:#181818;stroke-width:1;" x1="879.9399" x2="1184.0288" y1="549.4219" y2="549.4219"/><text fill="#000000" font-family="sans-serif" font-size="13" lengthAdjust="spacing" textLength="108.6528" x="886.9399" y="544.356">Atualiza estoque</text><polygon fill="#181818" points="279.6528,574.5547,269.6528,578.5547,279.6528,582.5547,275.6528,578.5547" style="stroke:#181818;stroke-width:1;"/><line style="stroke:#181818;stroke-width:1;" x1="273.6528" x2="1189.0288" y1="578.5547" y2="578.5547"/><text fill="#000000" font-family="sans-serif" font-size="13" lengthAdjust="spacing" textLength="173.1133" x="285.6528" y="573.4888">Atualiza status de estoque</text><polygon fill="#181818" points="256.6528,603.6875,266.6528,607.6875,256.6528,611.6875,260.6528,607.6875" style="stroke:#181818;stroke-width:1;"/><line style="stroke:#181818;stroke-width:1;" x1="35.542" x2="262.6528" y1="607.6875" y2="607.6875"/><text fill="#000000" font-family="sans-serif" font-size="13" lengthAdjust="spacing" textLength="125.7725" x="42.542" y="602.6216">Solicita pagamento</text><polygon fill="#181818" points="650.0693,632.8203,660.0693,636.8203,650.0693,640.8203,654.0693,636.8203" style="stroke:#181818;stroke-width:1;"/><line style="stroke:#181818;stroke-width:1;" x1="268.6528" x2="656.0693" y1="636.8203" y2="636.8203"/><text fill="#000000" font-family="sans-serif" font-size="13" lengthAdjust="spacing" textLength="278.8018" x="275.6528" y="631.7544">Inicia processo de pagamento (Pix, cart&#227;o)</text><polygon fill="#181818" points="279.6528,661.9531,269.6528,665.9531,279.6528,669.9531,275.6528,665.9531" style="stroke:#181818;stroke-width:1;"/><line style="stroke:#181818;stroke-width:1;" x1="273.6528" x2="661.0693" y1="665.9531" y2="665.9531"/><text fill="#000000" font-family="sans-serif" font-size="13" lengthAdjust="spacing" textLength="181.4033" x="285.6528" y="660.8872">Confirma&#231;&#227;o de pagamento</text><polygon fill="#181818" points="46.542,691.0859,36.542,695.0859,46.542,699.0859,42.542,695.0859" style="stroke:#181818;stroke-width:1;"/><line style="stroke:#181818;stroke-width:1;" x1="40.542" x2="267.6528" y1="695.0859" y2="695.0859"/><text fill="#000000" font-family="sans-serif" font-size="13" lengthAdjust="spacing" textLength="194.4985" x="52.542" y="690.02">Notifica pagamento conclu&#237;do</text><polygon fill="#181818" points="256.6528,720.2188,266.6528,724.2188,256.6528,728.2188,260.6528,724.2188" style="stroke:#181818;stroke-width:1;"/><line style="stroke:#181818;stroke-width:1;" x1="35.542" x2="262.6528" y1="724.2188" y2="724.2188"/><text fill="#000000" font-family="sans-serif" font-size="13" lengthAdjust="spacing" textLength="209.1108" x="42.542" y="719.1528">Conclui processo de pagamento</text><!--SRC=[XLJ1Jjqm4BpdArQSMWdKEuTAuGbGBnKgKkyRnmzMIhofxI34trGzSEg9JyYFiKdi-3aaukROCvwTsNLGURPmYtPuvRReq7fIrA7nK7ODAVJqnDdssJqvhrk4MaFP2vbUS7WT_l4Pe5js5Ewpxl01Mstyp5Y-Tl47DjvoeyVrjVFyfzSJCwptTNHDDRjPPLxds0E_a7d4RrTe9r3uBeeG1rnyFqa1Bk674Iu2fcHEZaTmSY_eUvOpyeBllHWKt9HJSOeIKXIxXEjdgZGSsRPzC_ornAEBXX_8P1Lb8ZTiZLOQbDMrDb8TkRL0Pg7CQe5AjnUkLsCwk3AJwYgLTewXaUeirhoVp-9OMGe2ug2Rib_T7XeYf8DWmR1i1s0y4bHeiQ1-Qqj7uKDDhcD35JLISZqD1OabLqHiTlalBL4O1EVHzsu4h_YdQg7_OoVCanGrrmCoC-8ep4g5jeYut0QR8rcPF2ljg6WQQT2By9QxBBkFbMxcbhhoa_sSo0U9xGJJEFeUc_XgHo4TCDWDRovUiXbd6QYHikjc0IOxaVBvz7JBBs4rCt4_FSNEyZoSOrxByPSxUZu79MzT77uj4cyj6PkMPdL7UYFs9AVOgAOV_ajgUzuE4uIswtq7]--></g></svg>