<svg xmlns="http://www.w3.org/2000/svg" xmlns:xlink="http://www.w3.org/1999/xlink" contentStyleType="text/css" data-diagram-type="ACTIVITY" height="628px" preserveAspectRatio="none" style="width:1207px;height:628px;background:#FFFFFF;" version="1.1" viewBox="0 0 1207 628" width="1207px" zoomAndPan="magnify"><defs/><g><ellipse cx="662.9425" cy="20" fill="#222222" rx="10" ry="10" style="stroke:#222222;stroke-width:1;"/><rect fill="#F1F1F1" height="33.9688" rx="12.5" ry="12.5" style="stroke:#181818;stroke-width:0.5;" width="183.9395" x="570.9728" y="50"/><text fill="#000000" font-family="sans-serif" font-size="12" lengthAdjust="spacing" textLength="163.9395" x="580.9728" y="71.1387">Escolher Cadastro ou Login</text><polygon fill="#F1F1F1" points="635.3029,103.9688,690.5822,103.9688,702.5822,115.9688,690.5822,127.9688,635.3029,127.9688,623.3029,115.9688,635.3029,103.9688" style="stroke:#181818;stroke-width:0.5;"/><text fill="#000000" font-family="sans-serif" font-size="11" lengthAdjust="spacing" textLength="55.2793" x="635.3029" y="119.7769">Cadastro?</text><text fill="#000000" font-family="sans-serif" font-size="11" lengthAdjust="spacing" textLength="20.7539" x="602.549" y="113.3745">Sim</text><text fill="#000000" font-family="sans-serif" font-size="11" lengthAdjust="spacing" textLength="21.6992" x="702.5822" y="113.3745">N&#227;o</text><rect fill="#F1F1F1" height="33.9688" rx="12.5" ry="12.5" style="stroke:#181818;stroke-width:0.5;" width="177.8984" x="267.8481" y="137.9688"/><text fill="#000000" font-family="sans-serif" font-size="12" lengthAdjust="spacing" textLength="157.8984" x="277.8481" y="159.1074">Preencher Dados Pessoais</text><polygon fill="#F1F1F1" points="289.5835,191.9375,424.0112,191.9375,436.0112,203.9375,424.0112,215.9375,289.5835,215.9375,277.5835,203.9375,289.5835,191.9375" style="stroke:#181818;stroke-width:0.5;"/><text fill="#000000" font-family="sans-serif" font-size="11" lengthAdjust="spacing" textLength="134.4277" x="289.5835" y="207.7456">Dados Pessoais V&#225;lidos?</text><text fill="#000000" font-family="sans-serif" font-size="11" lengthAdjust="spacing" textLength="20.7539" x="256.8296" y="201.3433">Sim</text><text fill="#000000" font-family="sans-serif" font-size="11" lengthAdjust="spacing" textLength="21.6992" x="436.0112" y="201.3433">N&#227;o</text><rect fill="#F1F1F1" height="33.9688" rx="12.5" ry="12.5" style="stroke:#181818;stroke-width:0.5;" width="137.9082" x="148.6973" y="225.9375"/><text fill="#000000" font-family="sans-serif" font-size="12" lengthAdjust="spacing" textLength="117.9082" x="158.6973" y="247.0762">Criar Senha e Login</text><polygon fill="#F1F1F1" points="176.2832,279.9063,259.0195,279.9063,271.0195,291.9063,259.0195,303.9063,176.2832,303.9063,164.2832,291.9063,176.2832,279.9063" style="stroke:#181818;stroke-width:0.5;"/><text fill="#000000" font-family="sans-serif" font-size="11" lengthAdjust="spacing" textLength="82.7363" x="176.2832" y="295.7144">Senha Segura?</text><text fill="#000000" font-family="sans-serif" font-size="11" lengthAdjust="spacing" textLength="20.7539" x="143.5293" y="289.312">Sim</text><text fill="#000000" font-family="sans-serif" font-size="11" lengthAdjust="spacing" textLength="21.6992" x="271.0195" y="289.312">N&#227;o</text><rect fill="#F1F1F1" height="33.9688" rx="12.5" ry="12.5" style="stroke:#181818;stroke-width:0.5;" width="150.9336" x="44.7383" y="313.9063"/><text fill="#000000" font-family="sans-serif" font-size="12" lengthAdjust="spacing" textLength="130.9336" x="54.7383" y="335.0449">Realizar Autentica&#231;&#227;o</text><rect fill="#F1F1F1" height="33.9688" rx="12.5" ry="12.5" style="stroke:#181818;stroke-width:0.5;" width="133.5137" x="53.4482" y="382.875"/><text fill="#000000" font-family="sans-serif" font-size="12" lengthAdjust="spacing" textLength="113.5137" x="63.4482" y="404.0137">Confirmar Registro</text><rect fill="#F1F1F1" height="33.9688" rx="12.5" ry="12.5" style="stroke:#181818;stroke-width:0.5;" width="218.4102" x="11" y="451.8438"/><text fill="#000000" font-family="sans-serif" font-size="12" lengthAdjust="spacing" textLength="198.4102" x="21" y="472.9824">Cadastro Realizado com Sucesso</text><rect fill="#F1F1F1" height="33.9688" rx="12.5" ry="12.5" style="stroke:#181818;stroke-width:0.5;" width="131.375" x="249.4102" y="313.9063"/><text fill="#000000" font-family="sans-serif" font-size="12" lengthAdjust="spacing" textLength="111.375" x="259.4102" y="335.0449">Senha N&#227;o Segura</text><rect fill="#F1F1F1" height="33.9688" rx="12.5" ry="12.5" style="stroke:#181818;stroke-width:0.5;" width="129.9629" x="250.1162" y="382.875"/><text fill="#000000" font-family="sans-serif" font-size="12" lengthAdjust="spacing" textLength="109.9629" x="260.1162" y="404.0137">Reiniciar Cadastro</text><polygon fill="#F1F1F1" points="217.6514,491.8125,229.6514,503.8125,217.6514,515.8125,205.6514,503.8125,217.6514,491.8125" style="stroke:#181818;stroke-width:0.5;"/><rect fill="#F1F1F1" height="33.9688" rx="12.5" ry="12.5" style="stroke:#181818;stroke-width:0.5;" width="170.3164" x="410.7852" y="225.9375"/><text fill="#000000" font-family="sans-serif" font-size="12" lengthAdjust="spacing" textLength="150.3164" x="420.7852" y="247.0762">Dados Pessoais Inv&#225;lidos</text><rect fill="#F1F1F1" height="33.9688" rx="12.5" ry="12.5" style="stroke:#181818;stroke-width:0.5;" width="129.9629" x="430.9619" y="279.9063"/><text fill="#000000" font-family="sans-serif" font-size="12" lengthAdjust="spacing" textLength="109.9629" x="440.9619" y="301.0449">Reiniciar Cadastro</text><polygon fill="#F1F1F1" points="356.7974,521.8125,368.7974,533.8125,356.7974,545.8125,344.7974,533.8125,356.7974,521.8125" style="stroke:#181818;stroke-width:0.5;"/><rect fill="#F1F1F1" height="33.9688" rx="12.5" ry="12.5" style="stroke:#181818;stroke-width:0.5;" width="175.5313" x="881.322" y="137.9688"/><text fill="#000000" font-family="sans-serif" font-size="12" lengthAdjust="spacing" textLength="155.5313" x="891.322" y="159.1074">Entrar com Login e Senha</text><polygon fill="#F1F1F1" points="888.5427,191.9375,1049.6326,191.9375,1061.6326,203.9375,1049.6326,215.9375,888.5427,215.9375,876.5427,203.9375,888.5427,191.9375" style="stroke:#181818;stroke-width:0.5;"/><text fill="#000000" font-family="sans-serif" font-size="11" lengthAdjust="spacing" textLength="161.0898" x="888.5427" y="207.7456">Autentica&#231;&#227;o Bem-Sucedida?</text><text fill="#000000" font-family="sans-serif" font-size="11" lengthAdjust="spacing" textLength="20.7539" x="855.7888" y="201.3433">Sim</text><text fill="#000000" font-family="sans-serif" font-size="11" lengthAdjust="spacing" textLength="21.6992" x="1061.6326" y="201.3433">N&#227;o</text><rect fill="#F1F1F1" height="33.9688" rx="12.5" ry="12.5" style="stroke:#181818;stroke-width:0.5;" width="123.4238" x="771.7856" y="225.9375"/><text fill="#000000" font-family="sans-serif" font-size="12" lengthAdjust="spacing" textLength="103.4238" x="781.7856" y="247.0762">Acesso Permitido</text><rect fill="#F1F1F1" height="33.9688" rx="12.5" ry="12.5" style="stroke:#181818;stroke-width:0.5;" width="210.3652" x="728.3149" y="279.9063"/><text fill="#000000" font-family="sans-serif" font-size="12" lengthAdjust="spacing" textLength="190.3652" x="738.3149" y="301.0449">Verificar Permiss&#245;es do Usu&#225;rio</text><polygon fill="#F1F1F1" points="770.2905,348.875,896.7046,348.875,908.7046,360.875,896.7046,372.875,770.2905,372.875,758.2905,360.875,770.2905,348.875" style="stroke:#181818;stroke-width:0.5;"/><text fill="#000000" font-family="sans-serif" font-size="11" lengthAdjust="spacing" textLength="126.4141" x="770.2905" y="364.6831">Permiss&#245;es Adequadas?</text><text fill="#000000" font-family="sans-serif" font-size="11" lengthAdjust="spacing" textLength="20.7539" x="737.5366" y="358.2808">Sim</text><text fill="#000000" font-family="sans-serif" font-size="11" lengthAdjust="spacing" textLength="21.6992" x="908.7046" y="358.2808">N&#227;o</text><rect fill="#F1F1F1" height="33.9688" rx="12.5" ry="12.5" style="stroke:#181818;stroke-width:0.5;" width="219.1484" x="631.1016" y="382.875"/><text fill="#000000" font-family="sans-serif" font-size="12" lengthAdjust="spacing" textLength="199.1484" x="641.1016" y="404.0137">Redirecionar para Menu Principal</text><rect fill="#F1F1F1" height="33.9688" rx="12.5" ry="12.5" style="stroke:#181818;stroke-width:0.5;" width="112.1387" x="870.25" y="382.875"/><text fill="#000000" font-family="sans-serif" font-size="12" lengthAdjust="spacing" textLength="92.1387" x="880.25" y="404.0137">Acesso Negado</text><polygon fill="#F1F1F1" points="833.4976,422.8438,845.4976,434.8438,833.4976,446.8438,821.4976,434.8438,833.4976,422.8438" style="stroke:#181818;stroke-width:0.5;"/><rect fill="#F1F1F1" height="33.9688" rx="12.5" ry="12.5" style="stroke:#181818;stroke-width:0.5;" width="146.2109" x="1031.5723" y="225.9375"/><text fill="#000000" font-family="sans-serif" font-size="12" lengthAdjust="spacing" textLength="126.2109" x="1041.5723" y="247.0762">Erro de Autentica&#231;&#227;o</text><rect fill="#F1F1F1" height="33.9688" rx="12.5" ry="12.5" style="stroke:#181818;stroke-width:0.5;" width="184.5781" x="1012.3887" y="279.9063"/><text fill="#000000" font-family="sans-serif" font-size="12" lengthAdjust="spacing" textLength="164.5781" x="1022.3887" y="301.0449">Reiniciar Processo de Login</text><polygon fill="#F1F1F1" points="969.0876,452.8438,981.0876,464.8438,969.0876,476.8438,957.0876,464.8438,969.0876,452.8438" style="stroke:#181818;stroke-width:0.5;"/><polygon fill="#F1F1F1" points="662.9425,551.8125,674.9425,563.8125,662.9425,575.8125,650.9425,563.8125,662.9425,551.8125" style="stroke:#181818;stroke-width:0.5;"/><ellipse cx="662.9425" cy="606.8125" fill="transparent" rx="11" ry="11" style="stroke:#222222;stroke-width:1;"/><ellipse cx="662.9425" cy="606.8125" fill="#222222" rx="6" ry="6" style="stroke:#222222;stroke-width:1;"/><line style="stroke:#181818;stroke-width:1;" x1="662.9425" x2="662.9425" y1="30" y2="50"/><polygon fill="#181818" points="658.9425,40,662.9425,50,666.9425,40,662.9425,44" style="stroke:#181818;stroke-width:1;"/><line style="stroke:#181818;stroke-width:1;" x1="120.2051" x2="120.2051" y1="347.875" y2="382.875"/><polygon fill="#181818" points="116.2051,372.875,120.2051,382.875,124.2051,372.875,120.2051,376.875" style="stroke:#181818;stroke-width:1;"/><line style="stroke:#181818;stroke-width:1;" x1="120.2051" x2="120.2051" y1="416.8438" y2="451.8438"/><polygon fill="#181818" points="116.2051,441.8438,120.2051,451.8438,124.2051,441.8438,120.2051,445.8438" style="stroke:#181818;stroke-width:1;"/><line style="stroke:#181818;stroke-width:1;" x1="315.0977" x2="315.0977" y1="347.875" y2="382.875"/><polygon fill="#181818" points="311.0977,372.875,315.0977,382.875,319.0977,372.875,315.0977,376.875" style="stroke:#181818;stroke-width:1;"/><line style="stroke:#181818;stroke-width:1;" x1="164.2832" x2="120.2051" y1="291.9063" y2="291.9063"/><line style="stroke:#181818;stroke-width:1;" x1="120.2051" x2="120.2051" y1="291.9063" y2="313.9063"/><polygon fill="#181818" points="116.2051,303.9063,120.2051,313.9063,124.2051,303.9063,120.2051,307.9063" style="stroke:#181818;stroke-width:1;"/><line style="stroke:#181818;stroke-width:1;" x1="271.0195" x2="315.0977" y1="291.9063" y2="291.9063"/><line style="stroke:#181818;stroke-width:1;" x1="315.0977" x2="315.0977" y1="291.9063" y2="313.9063"/><polygon fill="#181818" points="311.0977,303.9063,315.0977,313.9063,319.0977,303.9063,315.0977,307.9063" style="stroke:#181818;stroke-width:1;"/><line style="stroke:#181818;stroke-width:1;" x1="120.2051" x2="120.2051" y1="485.8125" y2="503.8125"/><line style="stroke:#181818;stroke-width:1;" x1="120.2051" x2="205.6514" y1="503.8125" y2="503.8125"/><polygon fill="#181818" points="195.6514,499.8125,205.6514,503.8125,195.6514,507.8125,199.6514,503.8125" style="stroke:#181818;stroke-width:1;"/><line style="stroke:#181818;stroke-width:1;" x1="315.0977" x2="315.0977" y1="416.8438" y2="503.8125"/><line style="stroke:#181818;stroke-width:1;" x1="315.0977" x2="229.6514" y1="503.8125" y2="503.8125"/><polygon fill="#181818" points="239.6514,499.8125,229.6514,503.8125,239.6514,507.8125,235.6514,503.8125" style="stroke:#181818;stroke-width:1;"/><line style="stroke:#181818;stroke-width:1;" x1="217.6514" x2="217.6514" y1="259.9063" y2="279.9063"/><polygon fill="#181818" points="213.6514,269.9063,217.6514,279.9063,221.6514,269.9063,217.6514,273.9063" style="stroke:#181818;stroke-width:1;"/><line style="stroke:#181818;stroke-width:1;" x1="495.9434" x2="495.9434" y1="259.9063" y2="279.9063"/><polygon fill="#181818" points="491.9434,269.9063,495.9434,279.9063,499.9434,269.9063,495.9434,273.9063" style="stroke:#181818;stroke-width:1;"/><line style="stroke:#181818;stroke-width:1;" x1="277.5835" x2="217.6514" y1="203.9375" y2="203.9375"/><line style="stroke:#181818;stroke-width:1;" x1="217.6514" x2="217.6514" y1="203.9375" y2="225.9375"/><polygon fill="#181818" points="213.6514,215.9375,217.6514,225.9375,221.6514,215.9375,217.6514,219.9375" style="stroke:#181818;stroke-width:1;"/><line style="stroke:#181818;stroke-width:1;" x1="436.0112" x2="495.9434" y1="203.9375" y2="203.9375"/><line style="stroke:#181818;stroke-width:1;" x1="495.9434" x2="495.9434" y1="203.9375" y2="225.9375"/><polygon fill="#181818" points="491.9434,215.9375,495.9434,225.9375,499.9434,215.9375,495.9434,219.9375" style="stroke:#181818;stroke-width:1;"/><line style="stroke:#181818;stroke-width:1;" x1="217.6514" x2="217.6514" y1="515.8125" y2="533.8125"/><line style="stroke:#181818;stroke-width:1;" x1="217.6514" x2="344.7974" y1="533.8125" y2="533.8125"/><polygon fill="#181818" points="334.7974,529.8125,344.7974,533.8125,334.7974,537.8125,338.7974,533.8125" style="stroke:#181818;stroke-width:1;"/><line style="stroke:#181818;stroke-width:1;" x1="495.9434" x2="495.9434" y1="313.875" y2="533.8125"/><line style="stroke:#181818;stroke-width:1;" x1="495.9434" x2="368.7974" y1="533.8125" y2="533.8125"/><polygon fill="#181818" points="378.7974,529.8125,368.7974,533.8125,378.7974,537.8125,374.7974,533.8125" style="stroke:#181818;stroke-width:1;"/><line style="stroke:#181818;stroke-width:1;" x1="356.7974" x2="356.7974" y1="171.9375" y2="191.9375"/><polygon fill="#181818" points="352.7974,181.9375,356.7974,191.9375,360.7974,181.9375,356.7974,185.9375" style="stroke:#181818;stroke-width:1;"/><line style="stroke:#181818;stroke-width:1;" x1="833.4976" x2="833.4976" y1="259.9063" y2="279.9063"/><polygon fill="#181818" points="829.4976,269.9063,833.4976,279.9063,837.4976,269.9063,833.4976,273.9063" style="stroke:#181818;stroke-width:1;"/><line style="stroke:#181818;stroke-width:1;" x1="758.2905" x2="740.6758" y1="360.875" y2="360.875"/><line style="stroke:#181818;stroke-width:1;" x1="740.6758" x2="740.6758" y1="360.875" y2="382.875"/><polygon fill="#181818" points="736.6758,372.875,740.6758,382.875,744.6758,372.875,740.6758,376.875" style="stroke:#181818;stroke-width:1;"/><line style="stroke:#181818;stroke-width:1;" x1="908.7046" x2="926.3193" y1="360.875" y2="360.875"/><line style="stroke:#181818;stroke-width:1;" x1="926.3193" x2="926.3193" y1="360.875" y2="382.875"/><polygon fill="#181818" points="922.3193,372.875,926.3193,382.875,930.3193,372.875,926.3193,376.875" style="stroke:#181818;stroke-width:1;"/><line style="stroke:#181818;stroke-width:1;" x1="740.6758" x2="740.6758" y1="416.8438" y2="434.8438"/><line style="stroke:#181818;stroke-width:1;" x1="740.6758" x2="821.4976" y1="434.8438" y2="434.8438"/><polygon fill="#181818" points="811.4976,430.8438,821.4976,434.8438,811.4976,438.8438,815.4976,434.8438" style="stroke:#181818;stroke-width:1;"/><line style="stroke:#181818;stroke-width:1;" x1="926.3193" x2="926.3193" y1="416.8438" y2="434.8438"/><line style="stroke:#181818;stroke-width:1;" x1="926.3193" x2="845.4976" y1="434.8438" y2="434.8438"/><polygon fill="#181818" points="855.4976,430.8438,845.4976,434.8438,855.4976,438.8438,851.4976,434.8438" style="stroke:#181818;stroke-width:1;"/><line style="stroke:#181818;stroke-width:1;" x1="833.4976" x2="833.4976" y1="313.875" y2="348.875"/><polygon fill="#181818" points="829.4976,338.875,833.4976,348.875,837.4976,338.875,833.4976,342.875" style="stroke:#181818;stroke-width:1;"/><line style="stroke:#181818;stroke-width:1;" x1="1104.6777" x2="1104.6777" y1="259.9063" y2="279.9063"/><polygon fill="#181818" points="1100.6777,269.9063,1104.6777,279.9063,1108.6777,269.9063,1104.6777,273.9063" style="stroke:#181818;stroke-width:1;"/><line style="stroke:#181818;stroke-width:1;" x1="876.5427" x2="833.4976" y1="203.9375" y2="203.9375"/><line style="stroke:#181818;stroke-width:1;" x1="833.4976" x2="833.4976" y1="203.9375" y2="225.9375"/><polygon fill="#181818" points="829.4976,215.9375,833.4976,225.9375,837.4976,215.9375,833.4976,219.9375" style="stroke:#181818;stroke-width:1;"/><line style="stroke:#181818;stroke-width:1;" x1="1061.6326" x2="1104.6777" y1="203.9375" y2="203.9375"/><line style="stroke:#181818;stroke-width:1;" x1="1104.6777" x2="1104.6777" y1="203.9375" y2="225.9375"/><polygon fill="#181818" points="1100.6777,215.9375,1104.6777,225.9375,1108.6777,215.9375,1104.6777,219.9375" style="stroke:#181818;stroke-width:1;"/><line style="stroke:#181818;stroke-width:1;" x1="833.4976" x2="833.4976" y1="446.8438" y2="464.8438"/><line style="stroke:#181818;stroke-width:1;" x1="833.4976" x2="957.0876" y1="464.8438" y2="464.8438"/><polygon fill="#181818" points="947.0876,460.8438,957.0876,464.8438,947.0876,468.8438,951.0876,464.8438" style="stroke:#181818;stroke-width:1;"/><line style="stroke:#181818;stroke-width:1;" x1="1104.6777" x2="1104.6777" y1="313.875" y2="464.8438"/><line style="stroke:#181818;stroke-width:1;" x1="1104.6777" x2="981.0876" y1="464.8438" y2="464.8438"/><polygon fill="#181818" points="991.0876,460.8438,981.0876,464.8438,991.0876,468.8438,987.0876,464.8438" style="stroke:#181818;stroke-width:1;"/><line style="stroke:#181818;stroke-width:1;" x1="969.0876" x2="969.0876" y1="171.9375" y2="191.9375"/><polygon fill="#181818" points="965.0876,181.9375,969.0876,191.9375,973.0876,181.9375,969.0876,185.9375" style="stroke:#181818;stroke-width:1;"/><line style="stroke:#181818;stroke-width:1;" x1="623.3029" x2="356.7974" y1="115.9688" y2="115.9688"/><line style="stroke:#181818;stroke-width:1;" x1="356.7974" x2="356.7974" y1="115.9688" y2="137.9688"/><polygon fill="#181818" points="352.7974,127.9688,356.7974,137.9688,360.7974,127.9688,356.7974,131.9688" style="stroke:#181818;stroke-width:1;"/><line style="stroke:#181818;stroke-width:1;" x1="702.5822" x2="969.0876" y1="115.9688" y2="115.9688"/><line style="stroke:#181818;stroke-width:1;" x1="969.0876" x2="969.0876" y1="115.9688" y2="137.9688"/><polygon fill="#181818" points="965.0876,127.9688,969.0876,137.9688,973.0876,127.9688,969.0876,131.9688" style="stroke:#181818;stroke-width:1;"/><line style="stroke:#181818;stroke-width:1;" x1="356.7974" x2="356.7974" y1="545.8125" y2="563.8125"/><line style="stroke:#181818;stroke-width:1;" x1="356.7974" x2="650.9425" y1="563.8125" y2="563.8125"/><polygon fill="#181818" points="640.9425,559.8125,650.9425,563.8125,640.9425,567.8125,644.9425,563.8125" style="stroke:#181818;stroke-width:1;"/><line style="stroke:#181818;stroke-width:1;" x1="969.0876" x2="969.0876" y1="476.8438" y2="563.8125"/><line style="stroke:#181818;stroke-width:1;" x1="969.0876" x2="674.9425" y1="563.8125" y2="563.8125"/><polygon fill="#181818" points="684.9425,559.8125,674.9425,563.8125,684.9425,567.8125,680.9425,563.8125" style="stroke:#181818;stroke-width:1;"/><line style="stroke:#181818;stroke-width:1;" x1="662.9425" x2="662.9425" y1="83.9688" y2="103.9688"/><polygon fill="#181818" points="658.9425,93.9688,662.9425,103.9688,666.9425,93.9688,662.9425,97.9688" style="stroke:#181818;stroke-width:1;"/><line style="stroke:#181818;stroke-width:1;" x1="662.9425" x2="662.9425" y1="575.8125" y2="595.8125"/><polygon fill="#181818" points="658.9425,585.8125,662.9425,595.8125,666.9425,585.8125,662.9425,589.8125" style="stroke:#181818;stroke-width:1;"/><!--SRC=[XP9DReCm48Ntd6AMoQ8NW4MLfbbKQY8KrEmjUo0ZWPsEJHUzJTH5Jz0JSB7QO1hofsvOpC_7UszidM2Nf2ihJRr7XgLGmZesO5fuDHNfB4ceXDbOVvo3swE6MK7DF058SqRKCgm-2sKiv6Yj4MGptmoBvrNOTSUQVEMIuqbB9i5GeDuBmF7deHCmGxd0gcLnlUktjoXg-lI0HUjGEvAY- -w-J1RxWMzqITpuaIrM5CnCcwFlo546f6cWQ6LGFWnYRH5c6q_z- -iWAvIYjkoaXpJ9u6X4HuXML2RNiFGYg1Vz4QCQzku01zmvB5rfntuk6EXZz77sGiURd4S4JzWy1AEAr8riqqKVWLV63JalAEhP8LFf6JnqhEr-q8BFxSsstP79d8ut7LWeV6-3WJjNLCGeoMZFFGWMi4RTGiwa9Hr4VVSGKUG6Aw7-Ith5_iuARxwKISmvcm6g9gynvjr_hJE7Nm00]--></g></svg>