<svg xmlns="http://www.w3.org/2000/svg" xmlns:xlink="http://www.w3.org/1999/xlink" contentStyleType="text/css" data-diagram-type="STATE" height="1032px" preserveAspectRatio="none" style="width:947px;height:1032px;background:#FFFFFF;" version="1.1" viewBox="0 0 947 1032" width="947px" zoomAndPan="magnify"><defs/><g><ellipse cx="233.49" cy="16" fill="#222222" rx="10" ry="10" style="stroke:#222222;stroke-width:1;"/><g id="Criado"><rect fill="#F1F1F1" height="50.2656" rx="12.5" ry="12.5" style="stroke:#181818;stroke-width:0.5;" width="144.1016" x="161.49" y="87"/><line style="stroke:#181818;stroke-width:0.5;" x1="161.49" x2="305.5916" y1="113.2969" y2="113.2969"/><text fill="#000000" font-family="sans-serif" font-size="14" lengthAdjust="spacing" textLength="45.4521" x="210.8147" y="104.9951">Criado</text><text fill="#000000" font-family="sans-serif" font-size="12" lengthAdjust="spacing" textLength="124.1016" x="166.49" y="129.4355">"Registro de Pedido"</text></g><g id="Enviado"><rect fill="#F1F1F1" height="50.2656" rx="12.5" ry="12.5" style="stroke:#181818;stroke-width:0.5;" width="218.123" x="124.49" y="214"/><line style="stroke:#181818;stroke-width:0.5;" x1="124.49" x2="342.613" y1="240.2969" y2="240.2969"/><text fill="#000000" font-family="sans-serif" font-size="14" lengthAdjust="spacing" textLength="55.9248" x="205.5891" y="231.9951">Enviado</text><text fill="#000000" font-family="sans-serif" font-size="12" lengthAdjust="spacing" textLength="198.123" x="129.49" y="256.4355">"Pedido Enviado ao Cozinha/Bar"</text></g><g id="Aprovado"><rect fill="#F1F1F1" height="50.2656" rx="12.5" ry="12.5" style="stroke:#181818;stroke-width:0.5;" width="214.8945" x="427.99" y="341"/><line style="stroke:#181818;stroke-width:0.5;" x1="427.99" x2="642.8845" y1="367.2969" y2="367.2969"/><text fill="#000000" font-family="sans-serif" font-size="14" lengthAdjust="spacing" textLength="67.1016" x="501.8865" y="358.9951">Aprovado</text><text fill="#000000" font-family="sans-serif" font-size="12" lengthAdjust="spacing" textLength="194.8945" x="432.99" y="383.4355">"Pedido Aprovado pelo Gerente"</text></g><g id="Em_Andamento"><rect fill="#F1F1F1" height="50.2656" rx="12.5" ry="12.5" style="stroke:#181818;stroke-width:0.5;" width="227.5918" x="354.49" y="468"/><line style="stroke:#181818;stroke-width:0.5;" x1="354.49" x2="582.0818" y1="494.2969" y2="494.2969"/><text fill="#000000" font-family="sans-serif" font-size="14" lengthAdjust="spacing" textLength="110.5781" x="412.9968" y="485.9951">Em_Andamento</text><text fill="#000000" font-family="sans-serif" font-size="12" lengthAdjust="spacing" textLength="207.5918" x="359.49" y="510.4355">"Cozinha/Bar Processando Pedido"</text></g><g id="Alterado"><rect fill="#F1F1F1" height="50.2656" rx="12.5" ry="12.5" style="stroke:#181818;stroke-width:0.5;" width="188.1289" x="294.49" y="595"/><line style="stroke:#181818;stroke-width:0.5;" x1="294.49" x2="482.6189" y1="621.2969" y2="621.2969"/><text fill="#000000" font-family="sans-serif" font-size="14" lengthAdjust="spacing" textLength="59.3564" x="358.8762" y="612.9951">Alterado</text><text fill="#000000" font-family="sans-serif" font-size="12" lengthAdjust="spacing" textLength="168.1289" x="299.49" y="637.4355">"Pedido Alterado (Gerente)"</text></g><g id="Finalizado"><rect fill="#F1F1F1" height="50.2656" rx="12.5" ry="12.5" style="stroke:#181818;stroke-width:0.5;" width="134.5391" x="654.99" y="722"/><line style="stroke:#181818;stroke-width:0.5;" x1="654.99" x2="789.5291" y1="748.2969" y2="748.2969"/><text fill="#000000" font-family="sans-serif" font-size="14" lengthAdjust="spacing" textLength="70.5537" x="686.9827" y="739.9951">Finalizado</text><text fill="#000000" font-family="sans-serif" font-size="12" lengthAdjust="spacing" textLength="114.5391" x="659.99" y="764.4355">"Pedido Conclu&#237;do"</text></g><g id="Pago"><rect fill="#F1F1F1" height="50.2656" rx="12.5" ry="12.5" style="stroke:#181818;stroke-width:0.5;" width="161.4922" x="558.99" y="849"/><line style="stroke:#181818;stroke-width:0.5;" x1="558.99" x2="720.4822" y1="875.2969" y2="875.2969"/><text fill="#000000" font-family="sans-serif" font-size="14" lengthAdjust="spacing" textLength="34.4736" x="622.4993" y="866.9951">Pago</text><text fill="#000000" font-family="sans-serif" font-size="12" lengthAdjust="spacing" textLength="141.4922" x="563.99" y="891.4355">"Pagamento Realizado"</text></g><g id="Concluido"><rect fill="#F1F1F1" height="50.2656" rx="12.5" ry="12.5" style="stroke:#181818;stroke-width:0.5;" width="135.8574" x="387.49" y="976"/><line style="stroke:#181818;stroke-width:0.5;" x1="387.49" x2="523.3474" y1="1002.2969" y2="1002.2969"/><text fill="#000000" font-family="sans-serif" font-size="14" lengthAdjust="spacing" textLength="69.0156" x="420.9109" y="993.9951">Concluido</text><text fill="#000000" font-family="sans-serif" font-size="12" lengthAdjust="spacing" textLength="115.8574" x="392.49" y="1018.4355">"Pedido Finalizado"</text></g><!--link *start* to Criado--><g id="link_*start*_Criado"><path d="M233.49,26.01 C233.49,39.89 233.49,60.97 233.49,80.84 " fill="transparent" id="*start*-to-Criado" style="stroke:#181818;stroke-width:1;"/><polygon fill="#181818" points="233.49,86.84,237.49,77.84,233.49,81.84,229.49,77.84,233.49,86.84" style="stroke:#181818;stroke-width:1;"/></g><!--link Criado to Enviado--><g id="link_Criado_Enviado"><path d="M233.49,137.1 C233.49,159.24 233.49,185.86 233.49,207.97 " fill="transparent" id="Criado-to-Enviado" style="stroke:#181818;stroke-width:1;"/><polygon fill="#181818" points="233.49,213.97,237.49,204.97,233.49,208.97,229.49,204.97,233.49,213.97" style="stroke:#181818;stroke-width:1;"/><text fill="#000000" font-family="sans-serif" font-size="13" lengthAdjust="spacing" textLength="107.4595" x="234.49" y="180.0669">Registrar Pedido</text></g><!--link Enviado to Aprovado--><g id="link_Enviado_Aprovado"><path d="M291.72,264.1 C345.2,286.24 418.4761,316.5654 471.8961,338.6754 " fill="transparent" id="Enviado-to-Aprovado" style="stroke:#181818;stroke-width:1;"/><polygon fill="#181818" points="477.44,340.97,470.6538,333.8322,472.8201,339.0579,467.5944,341.2241,477.44,340.97" style="stroke:#181818;stroke-width:1;"/><text fill="#000000" font-family="sans-serif" font-size="13" lengthAdjust="spacing" textLength="166.5117" x="403.49" y="307.0669">Aprovar Pedido (Gerente)</text></g><!--link Enviado to Em_Andamento--><g id="link_Enviado_Em_Andamento"><path d="M229.65,264.27 C225.94,296.44 224.31,353.48 251.49,391 C278.86,428.77 318.2945,450.8081 360.3045,465.9281 " fill="transparent" id="Enviado-to-Em_Andamento" style="stroke:#181818;stroke-width:1;"/><polygon fill="#181818" points="365.95,467.96,358.8364,461.1485,361.2454,466.2668,356.1272,468.6758,365.95,467.96" style="stroke:#181818;stroke-width:1;"/><text fill="#000000" font-family="sans-serif" font-size="13" lengthAdjust="spacing" textLength="157.3838" x="252.49" y="370.5669">Enviar para Cozinha/Bar</text></g><!--link Enviado to Alterado--><g id="link_Enviado_Alterado"><path d="M206.37,264.05 C144.83,321.45 6,468.84 86.49,565 C112.69,596.3 209.7649,609.0476 288.2649,614.5876 " fill="transparent" id="Enviado-to-Alterado" style="stroke:#181818;stroke-width:1;"/><polygon fill="#181818" points="294.25,615.01,285.5539,610.3863,289.2624,614.658,284.9907,618.3665,294.25,615.01" style="stroke:#181818;stroke-width:1;"/><text fill="#000000" font-family="sans-serif" font-size="13" lengthAdjust="spacing" textLength="166.8989" x="83.49" y="434.0669">Solicitar Edi&#231;&#227;o (Gerente)</text></g><!--link Aprovado to Em_Andamento--><g id="link_Aprovado_Em_Andamento"><path d="M522.57,391.1 C510.71,413.24 496.0543,440.5717 484.2043,462.6817 " fill="transparent" id="Aprovado-to-Em_Andamento" style="stroke:#181818;stroke-width:1;"/><polygon fill="#181818" points="481.37,467.97,489.1471,461.927,483.7319,463.563,482.0959,458.1479,481.37,467.97" style="stroke:#181818;stroke-width:1;"/><text fill="#000000" font-family="sans-serif" font-size="13" lengthAdjust="spacing" textLength="94.5864" x="506.49" y="434.0669">Iniciar Preparo</text></g><!--link Em_Andamento to Finalizado--><g id="link_Em_Andamento_Finalizado"><path d="M582.5,495.11 C677.52,498.74 802.33,510.75 834.49,548 C882.37,603.45 806.6856,678.7006 758.8256,718.0306 " fill="transparent" id="Em_Andamento-to-Finalizado" style="stroke:#181818;stroke-width:1;"/><polygon fill="#181818" points="754.19,721.84,763.683,719.2163,758.053,718.6655,758.6038,713.0355,754.19,721.84" style="stroke:#181818;stroke-width:1;"/><text fill="#000000" font-family="sans-serif" font-size="13" lengthAdjust="spacing" textLength="90.4668" x="849.49" y="624.5669">Pedido Pronto</text></g><!--link Em_Andamento to Alterado--><g id="link_Em_Andamento_Alterado"><path d="M354.35,494.83 C257.88,498.25 130.28,510.09 97.49,548 C69.38,580.5 192.854,599.9821 288.154,610.1721 " fill="transparent" id="Em_Andamento-to-Alterado" style="stroke:#181818;stroke-width:1;"/><polygon fill="#181818" points="294.12,610.81,285.5963,605.8758,289.1483,610.2784,284.7457,613.8305,294.12,610.81" style="stroke:#181818;stroke-width:1;"/><text fill="#000000" font-family="sans-serif" font-size="13" lengthAdjust="spacing" textLength="166.8989" x="98.49" y="561.0669">Solicitar Edi&#231;&#227;o (Gerente)</text></g><!--link Alterado to Em_Andamento--><g id="link_Alterado_Em_Andamento"><path d="M408.05,594.82 C415.12,585.69 422.95,575.07 429.49,565 C439.3,549.9 446.2742,537.4693 453.5642,523.4993 " fill="transparent" id="Alterado-to-Em_Andamento" style="stroke:#181818;stroke-width:1;"/><polygon fill="#181818" points="456.34,518.18,448.6301,524.3084,454.0268,522.6128,455.7225,528.0095,456.34,518.18" style="stroke:#181818;stroke-width:1;"/><text fill="#000000" font-family="sans-serif" font-size="13" lengthAdjust="spacing" textLength="157.3838" x="439.49" y="561.0669">Enviar para Cozinha/Bar</text></g><!--link Em_Andamento to Alterado--><g id="link_Em_Andamento_Alterado"><path d="M354.12,509.93 C333.52,518.06 314.49,530.14 301.49,548 C288.19,566.29 299.559,579.6591 321.719,592.0091 " fill="transparent" id="Em_Andamento-to-Alterado-1" style="stroke:#181818;stroke-width:1;"/><polygon fill="#181818" points="326.96,594.93,321.0457,587.0547,322.5925,592.4959,317.1512,594.0427,326.96,594.93" style="stroke:#181818;stroke-width:1;"/><text fill="#000000" font-family="sans-serif" font-size="13" lengthAdjust="spacing" textLength="118.7075" x="302.49" y="561.0669">Solicitar Altera&#231;&#227;o</text></g><!--link Alterado to Em_Andamento--><g id="link_Alterado_Em_Andamento"><path d="M482.57,607.18 C533.81,598.6 589.89,584.96 605.49,565 C621.66,544.32 610.9078,531.3692 584.6478,520.4192 " fill="transparent" id="Alterado-to-Em_Andamento-1" style="stroke:#181818;stroke-width:1;"/><polygon fill="#181818" points="579.11,518.11,585.8773,525.2657,583.7249,520.0343,588.9562,517.8819,579.11,518.11" style="stroke:#181818;stroke-width:1;"/><text fill="#000000" font-family="sans-serif" font-size="13" lengthAdjust="spacing" textLength="213.8018" x="612.49" y="561.0669">Enviar novamente &#224; Cozinha/Bar</text></g><!--link Finalizado to Pago--><g id="link_Finalizado_Pago"><path d="M665.67,772.27 C654,780 643.23,789.81 636.49,802 C628.67,816.14 628.4954,828.5102 631.3054,842.9702 " fill="transparent" id="Finalizado-to-Pago" style="stroke:#181818;stroke-width:1;"/><polygon fill="#181818" points="632.45,848.86,634.6597,839.2622,631.4962,843.9518,626.8066,840.7883,632.45,848.86" style="stroke:#181818;stroke-width:1;"/><text fill="#000000" font-family="sans-serif" font-size="13" lengthAdjust="spacing" textLength="125.5439" x="637.49" y="815.0669">Efetuar Pagamento</text></g><!--link Finalizado to Pago--><g id="link_Finalizado_Pago"><path d="M753.06,772.15 C766.74,785.96 777.74,803.56 767.49,819 C756.29,835.88 744.1747,845.1361 725.5347,853.1261 " fill="transparent" id="Finalizado-to-Pago-1" style="stroke:#181818;stroke-width:1;"/><polygon fill="#181818" points="720.02,855.49,729.868,855.6207,724.6156,853.5201,726.7162,848.2677,720.02,855.49" style="stroke:#181818;stroke-width:1;"/><text fill="#000000" font-family="sans-serif" font-size="13" lengthAdjust="spacing" textLength="142.8857" x="772.49" y="815.0669">Confirmar Pagamento</text></g><!--link Pago to Concluido--><g id="link_Pago_Concluido"><path d="M558.79,888.4 C514.45,897.59 465.8,911.31 452.49,929 C442.56,942.21 442.476,955.2071 445.966,970.1571 " fill="transparent" id="Pago-to-Concluido" style="stroke:#181818;stroke-width:1;"/><polygon fill="#181818" points="447.33,976,449.1793,966.3263,446.1933,971.1309,441.3887,968.145,447.33,976" style="stroke:#181818;stroke-width:1;"/><text fill="#000000" font-family="sans-serif" font-size="13" lengthAdjust="spacing" textLength="142.8857" x="453.49" y="942.0669">Confirmar Pagamento</text></g><!--link Pago to Concluido--><g id="link_Pago_Concluido"><path d="M631.22,899.27 C624.92,914.52 614.86,933.59 600.49,946 C578.74,964.79 555.5675,975.5222 529.2975,983.7222 " fill="transparent" id="Pago-to-Concluido-1" style="stroke:#181818;stroke-width:1;"/><polygon fill="#181818" points="523.57,985.51,533.3531,986.6466,528.3429,984.0202,530.9693,979.01,523.57,985.51" style="stroke:#181818;stroke-width:1;"/><text fill="#000000" font-family="sans-serif" font-size="13" lengthAdjust="spacing" textLength="210.2344" x="615.49" y="942.0669">Confirmar Pagamento Realizado</text></g><!--link Alterado to Finalizado--><g id="link_Alterado_Finalizado"><path d="M452.89,645.1 C512.03,667.24 593.5906,697.757 652.6706,719.867 " fill="transparent" id="Alterado-to-Finalizado" style="stroke:#181818;stroke-width:1;"/><polygon fill="#181818" points="658.29,721.97,651.2629,715.0693,653.6072,720.2175,648.4589,722.5618,658.29,721.97" style="stroke:#181818;stroke-width:1;"/><text fill="#000000" font-family="sans-serif" font-size="13" lengthAdjust="spacing" textLength="169.7173" x="575.49" y="688.0669">Finalizar Pedido (Gerente)</text></g><!--link Alterado to Concluido--><g id="link_Alterado_Concluido"><path d="M390.26,645.03 C394.66,699.41 407.95,835.77 437.49,946 C440.15,955.93 441.6769,961.0234 444.8569,970.3134 " fill="transparent" id="Alterado-to-Concluido" style="stroke:#181818;stroke-width:1;"/><polygon fill="#181818" points="446.8,975.99,447.6697,966.1796,445.1807,971.2595,440.1009,968.7705,446.8,975.99" style="stroke:#181818;stroke-width:1;"/><text fill="#000000" font-family="sans-serif" font-size="13" lengthAdjust="spacing" textLength="209.5552" x="411.49" y="815.0669">Confirmar Pagamento (Se Pago)</text></g><!--SRC=[bLCzJyCm4DtzAonF1QbYxu1KgeBO8ZeYX4x9DLXAxCX9E_JN834myIlon_1tRGWYdUBSlNjtxvtzVFr2byjRkb4SAac8-zhGLXpjUKMViERze43H0YkkOI5bOEjEoQF3kMD0qSK3AXG3NcNuRVkw5XMqEcDgR4hH3XJGZJnnyGOtTw3o5is0ohNOoOQNVD0LsugFd-D7seR4MIOQFGfTQ8PJg9jf3MdQuE-vW8QVN1yleL1IftzZPq-Ka9gw0cehUe_3mSm2jICbDc4N8KNP7BYbrkSzLsq69B7r1MPcDPdEy3EnjApedx7eOeTMd9OypomNj7xDaIJqNaq8wVYUIVl3uIdhvdgixxjdZEzXHPb_199MwBrYvFn4cBSlH42cKpAIl980ZQ4E6qczxOpyqCyI6dCTI-nx4EPg-XaIToDp2CLbCf9jFG2T4UENuV76iGaR64aT2yLdHlOD]--></g></svg>